<svg xmlns="http://www.w3.org/2000/svg" xmlns:xlink="http://www.w3.org/1999/xlink" version="1.1" id="Layer_1" x="0" y="0" width="133.1" height="158.84" viewBox="0 0 133.1 158.84" enable-background="new 0 0 133.103 158.836" xml:space="preserve">
  <g id="Image" display="none">
    <image display="inline" overflow="visible" opacity="0.5" enable-background="new    " width="1079" height="1302" xlink:href="../../../../../../Downloads/IMG_5220.JPG" transform="matrix(3.697106e-11 -0.8235 0.8235 3.697106e-11 -308.0129 541.4901)"/>
  </g>
  <g id="grpahic1" opacity="0.5">
    <g opacity="0.3">
      <path fill="#FFFFFF" d="M79.4 52c0 0 0.13 0.12 0.34 0.35 0.2 0.24 0.52 0.61 0.81 1.13 0.57 1.02 1.09 2.77 0.93 4.92 -0.14 2.14-0.92 4.58-2.13 6.76 -1.21 2.19-2.79 4.11-4.38 5.46 -0.52 0.45-1.01 0.86-1.47 1.25 -0.46 0.45-0.97 0.8-1.41 1.21 -0.93 0.77-1.83 1.51-2.76 2.19 -1.83 1.4-3.69 2.7-5.57 4.22 -1.89 1.52-3.72 3.35-5.72 5.62 -1.03 1.11-2.06 2.37-3.35 3.66 -1.29 1.28-2.78 2.66-4.8 4.08 0 0 0.55-0.66 1.53-1.82 0.9-1.2 2.04-2.88 2.97-5.11 0.98-2.24 1.77-5.03 2.94-8.69 0.59-1.8 1.31-3.82 2.34-5.96 0.48-1.06 1.12-2.15 1.77-3.24 0.73-1.08 1.46-2.17 2.37-3.19 0.82-1 1.89-2 2.78-2.68 0.92-0.71 1.78-1.25 2.6-1.72 1.63-0.92 3.09-1.56 4.45-2.25 1.35-0.69 2.63-1.42 3.72-2.43C78.42 54.79 79.28 53.45 79.4 52z"/>
    </g>
    <g opacity="0.3">
      <path fill="#FFFFFF" d="M44.76 76.09c0 0 0.38 0.46 0.87 1.35 0.24 0.45 0.52 1.01 0.77 1.68 0.21 0.66 0.41 1.42 0.55 2.27 0.29 1.68 0.27 3.67-0.08 5.59 -0.19 0.99-0.39 1.89-0.74 2.81 -0.3 0.89-0.7 1.73-1.15 2.51 -0.29 0.55-0.63 1.05-0.93 1.51 -0.25 0.45-0.52 0.86-0.81 1.25 -0.54 0.81-1.01 1.61-1.61 2.33 -0.53 0.76-1.04 1.51-1.61 2.24 -0.57 0.74-1.04 1.54-1.56 2.37 -1.01 1.67-1.85 3.62-2.35 6.18 -0.25 1.29-0.42 2.71-0.5 4.34 -0.06 0.81-0.09 1.67-0.1 2.59 -0.06 0.91-0.1 1.87-0.1 2.93 0 0-0.17-0.74-0.39-2.02 -0.09-0.63-0.25-1.41-0.44-2.32 -0.18-0.92-0.38-1.95-0.6-3.09 -0.42-2.28-0.93-5.12-1.08-8.47 -0.18-3.31 0.17-7.44 1.96-11.56 0.89-1.99 1.95-3.41 2.96-4.57 0.5-0.61 1-1.1 1.48-1.58 0.48-0.48 0.94-0.94 1.41-1.41 0.93-0.92 1.74-1.84 2.5-2.95 0.34-0.56 0.65-1.16 0.95-1.82C44.42 77.59 44.58 76.87 44.76 76.09z"/>
    </g>
    <g opacity="0.3">
      <path fill="#FFFFFF" d="M18.85 95.67c0 0 0.56 0.54 1.32 1.64 0.78 1.11 1.65 2.77 2.1 5 0.48 2.23 0.34 4.93-0.2 7.47 -0.13 0.62-0.28 1.24-0.47 1.85 -0.16 0.59-0.34 1.17-0.56 1.73 -0.23 0.57-0.41 1.11-0.68 1.64 -0.12 0.26-0.28 0.53-0.4 0.78 -0.11 0.24-0.23 0.47-0.36 0.7 -1.52 2.62-2.71 4.5-3.98 6.41 -1.28 1.9-2.42 3.81-3.32 6.16 -0.87 2.34-1.29 5.15-0.63 8.64 0.32 1.75 0.99 3.63 1.99 5.67 1.05 2.01 2.45 4.17 4.35 6.4 0 0-0.82-0.62-2.2-1.86 -1.35-1.27-3.28-3.17-5.29-5.94 -1.99-2.77-4.08-6.47-5.25-11.26C4.02 126 4.11 119.97 6.36 114.5c0.58-1.34 1.16-2.55 1.88-3.57 0.34-0.52 0.68-1.03 1.02-1.48 0.35-0.41 0.69-0.81 1.02-1.2 1.35-1.54 2.69-2.71 3.9-3.87 0.61-0.58 1.16-1.12 1.71-1.73 0.47-0.58 1.05-1.2 1.42-1.89C18.2 99.43 18.68 97.74 18.85 95.67z"/>
    </g>
    <g opacity="0.3">
      <path fill="#FFFFFF" d="M36.69 72.06c0 0 0.12 0.46 0.25 1.19 0.13 0.74 0.3 1.71 0.42 2.85 0.11 1.12 0.12 2.42-0.23 3.8 -0.1 0.35-0.23 0.7-0.37 1.06 -0.16 0.36-0.27 0.69-0.56 1.1 -0.51 0.76-1.07 1.35-1.72 1.86 -1.85 1.43-3.43 2-4.87 2.3 -1.45 0.29-2.76 0.27-4.12 0.28 -1.36-0.01-2.77 0.04-4.45 0.22 -0.83 0.08-1.74 0.2-2.68 0.2 -0.46-0.01-0.93-0.03-1.34-0.14 -0.4-0.12-0.74-0.28-1.07-0.65 0.01-0.02 0.33 0.23 0.83 0.25 0.48 0.03 1.28-0.15 2.48-0.69 2.38-1.07 5.85-3.44 9.58-5.9 0.92-0.61 1.72-1.09 2.41-1.49 0.16-0.09 0.32-0.18 0.47-0.28l0.21-0.12 0.23-0.18c0.32-0.25 0.63-0.49 0.93-0.73 0.62-0.55 1.19-1.15 1.78-1.95 0.3-0.4 0.57-0.83 0.87-1.31C36.06 73.21 36.37 72.67 36.69 72.06z"/>
    </g>
    <g opacity="0.3">
      <path fill="#FFFFFF" d="M76.21 49.6c0 0-0.2-0.03-0.57-0.09 -0.36-0.06-0.96-0.2-1.75-0.21 -0.2 0.01-0.41 0.01-0.62 0.02 -0.24 0.01-0.5 0.04-0.75 0.07 -0.5 0.06-0.95 0.25-1.4 0.44 -0.89 0.4-1.73 0.97-2.59 1.55 -3.44 2.41-7.53 5.37-12.84 5.88 -1.89 0.19-3.56 0.23-5.05 0.16 -0.74-0.04-1.45-0.1-2.05-0.18 -0.31-0.04-0.57-0.09-0.7-0.18 -0.27-0.04-0.54-0.08-0.84-0.11 -2.35-0.24-4.75-0.53-7.29-0.53 -2.54 0.04-5.33 0.37-8.52 2.12 -0.79 0.45-1.61 0.99-2.42 1.69 -0.81 0.69-1.63 1.54-2.37 2.65 -0.73 1.1-1.41 2.5-1.61 4.26 -0.2 1.76 0.36 3.81 1.5 5.31 0 0-0.23-0.23-0.65-0.72 -0.4-0.5-0.98-1.34-1.37-2.65 -0.4-1.3-0.46-3.08-0.02-4.84 0.42-1.77 1.26-3.53 2.34-5.16 2.19-3.27 5.32-6.22 9.15-8.77 1.93-1.28 4.01-2.44 6.43-3.46 0.62-0.25 1.24-0.5 1.96-0.73 0.26-0.09 0.97-0.29 1.25-0.36 0.39-0.1 0.69-0.16 1.03-0.23 1.28-0.26 2.5-0.44 3.74-0.6 4.92-0.57 8.47 0.01 12.08 0.51 1.81 0.26 3.62 0.5 5.74 0.74 1.08 0.14 2.22 0.25 3.7 0.58 0.35 0.07 0.79 0.21 1.23 0.36 0.4 0.12 1.07 0.46 1.46 0.7 0.39 0.24 0.74 0.52 1.08 0.83 0.14 0.16 0.27 0.33 0.41 0.49C76 49.28 76.1 49.44 76.21 49.6z"/>
    </g>
    <g opacity="0.3">
      <path fill="#FFFFFF" d="M87.25 6.3c0 0-0.05 0.37-0.15 1.07 -0.09 0.71-0.23 1.76-0.41 3.09 -0.18 1.36-0.38 3.02-0.71 4.98 -0.31 1.95-0.81 4.22-1.64 6.66 -0.43 1.25-0.91 2.44-1.45 3.62 -0.52 1.15-1.06 2.34-1.62 3.56 -1.08 2.37-2.05 4.75-2.42 7.15 -0.41 2.38-0.09 4.84 0.78 7.27 0.88 2.37 2.41 4.47 4.46 6.15 4.11 3.41 9.88 5.14 15.32 6.11 1.37 0.25 2.73 0.46 4.08 0.62 0.67 0.09 1.34 0.17 2 0.23 0.67 0.07 1.29 0.13 2.03 0.23 1.41 0.18 2.79 0.33 4.12 0.63 0.66 0.14 1.32 0.24 1.95 0.42 0.63 0.18 1.25 0.35 1.86 0.52 4.87 1.44 8.51 3.53 10.92 4.97 1.24 0.71 2.13 1.33 2.77 1.73 0.63 0.41 0.97 0.62 0.97 0.62s-0.94-0.36-2.65-1.02c-1.71-0.64-4.21-1.6-7.4-2.46 -3.17-0.88-7.04-1.53-11.27-1.54 -2.1-0.01-4.37 0.09-6.77 0.03 -2.39-0.08-4.89-0.25-7.48-0.66 -2.58-0.43-5.25-1.08-7.92-2.12 -2.66-1.04-5.32-2.57-7.65-4.7 -2.32-2.12-4.21-4.93-5.26-8.01l-0.65-2.34c-0.13-0.8-0.3-1.6-0.34-2.42 -0.14-1.63-0.03-3.29 0.28-4.87 0.61-3.18 1.99-5.9 3.41-8.32 1.42-2.42 2.97-4.63 4.23-6.91C83.17 15.95 84.82 10.6 87.25 6.3z"/>
    </g>
  </g>
  <g id="gaphic2" display="none">
    <g display="inline" opacity="0.1">
      <path fill="#FFFFFF" d="M-2.62-88.69c0 0 0.88 1.67 2.42 4.6 0.73 1.48 1.54 3.3 2.51 5.38 0.87 2.1 1.91 4.47 2.93 7.06 2.1 5.17 4.33 11.24 7.29 17.4 1.53 3.05 3.08 6.24 5.11 9.02 2.02 2.82 4.49 5.39 7.28 7.56 5.58 4.36 12.38 7.06 18.96 8.45 6.6 1.43 13 1.57 18.46 1.47 1.37-0.04 2.68-0.07 3.93-0.11 1.25-0.05 2.44-0.16 3.56-0.23 2.23-0.16 4.18-0.29 5.79-0.46 3.22-0.3 5.06-0.47 5.06-0.47s-1.12 0.23-3.17 0.64c-1.02 0.2-2.28 0.44-3.75 0.72 -1.47 0.24-3.15 0.51-5.01 0.81 -1.86 0.33-3.92 0.52-6.15 0.76 -1.11 0.1-2.27 0.27-3.47 0.32 -1.2 0.04-2.44 0.08-3.71 0.12 -5.1 0.21-10.83-0.22-16.78-1.71 -2.96-0.76-5.98-1.78-8.92-3.18 -2.93-1.42-5.79-3.2-8.41-5.37 -2.62-2.16-5-4.71-6.95-7.58 -1.99-2.87-3.43-5.94-4.87-8.98 -2.77-6.15-4.72-12.48-6.58-18.58C1.06-77.17-0.68-83.07-2.62-88.69z"/>
    </g>
    <g display="inline" opacity="0.1">
      <path fill="#FFFFFF" d="M-2.91-88.82c0 0 0.26 0.28 0.74 0.81 0.25 0.26 0.53 0.6 0.89 0.97 0.4 0.33 0.86 0.72 1.38 1.14 1.07 0.82 2.48 1.68 4.21 2.5 0.88 0.38 1.84 0.76 2.87 1.11 1.05 0.31 2.14 0.68 3.34 0.93 4.73 1.17 10.51 1.64 16.81 2.31 3.13 0.35 6.49 0.78 9.76 1.62 3.27 0.77 6.54 1.73 9.76 2.82 12.89 4.36 25.08 11.18 32.01 19.31 3.36 4.07 5.3 8.05 6.4 10.9 0.26 0.72 0.53 1.35 0.71 1.92 0.17 0.57 0.31 1.06 0.43 1.45 0.23 0.79 0.35 1.21 0.35 1.21s-0.41-1-1.15-2.83c-0.87-1.76-2.06-4.35-4.14-7.16 -2.03-2.82-4.82-5.94-8.49-8.65 -3.76-2.62-8.07-5.24-12.93-7.49 -4.86-2.24-10.14-4.28-15.67-6.02 -1.39-0.41-2.79-0.81-4.19-1.23 -1.41-0.39-2.84-0.72-4.27-1.09 -2.83-0.72-5.7-1.15-8.66-1.57 -5.89-0.83-11.95-1.55-17.5-3.45 -2.75-0.96-5.4-2.13-7.6-3.77C-0.06-84.72-1.78-86.72-2.91-88.82z"/>
    </g>
    <g display="inline" opacity="0.1">
      <path fill="#FFFFFF" d="M84.73-50.36c0 0-0.17-0.27-0.49-0.79 -0.16-0.26-0.36-0.57-0.59-0.95 -0.2-0.39-0.44-0.83-0.7-1.33 -1.01-2-2.22-4.97-3.01-8.7 -0.8-3.71-1.18-8.22-0.38-12.98 0.38-2.38 1.18-4.81 2.45-7.07 0.16-0.28 0.31-0.57 0.48-0.85l0.58-0.8 0.58-0.8c0.2-0.26 0.43-0.47 0.64-0.71l1.3-1.41c0.45-0.46 0.95-0.86 1.42-1.29 3.83-3.44 8.44-5.66 12.65-7.59 4.24-1.88 8.17-3.53 11.32-5.29 3.16-1.74 5.52-3.54 7.04-4.94 0.78-0.68 1.29-1.31 1.69-1.69 0.38-0.4 0.59-0.61 0.59-0.61s-0.45 0.58-1.26 1.64c-0.39 0.56-0.98 1.13-1.65 1.83 -0.64 0.73-1.51 1.43-2.44 2.25 -1.92 1.57-4.42 3.26-7.39 4.88 -2.96 1.64-6.36 3.23-9.82 5.1 -3.46 1.87-6.96 4.07-9.94 6.95 -0.76 0.7-1.41 1.52-2.13 2.27 -0.6 0.81-1.23 1.59-1.68 2.52 -0.97 1.79-1.7 3.77-2.1 5.84 -0.43 2.06-0.68 4.18-0.69 6.31 -0.06 1.06 0.03 2.12 0.04 3.18 0.1 1.05 0.13 2.11 0.3 3.15C82.05-58.07 83.1-54.07 84.73-50.36z"/>
    </g>
    <g display="inline" opacity="0.1">
      <path fill="#FFFFFF" d="M108.38-46.28c0 0 0.02-0.02 0.06-0.03 0.04-0.01 0.1-0.01 0.22-0.12 0.23-0.13 0.64-0.55 1.07-1.23 0.88-1.36 1.86-3.66 2.85-6.51 0.13-0.36 0.26-0.73 0.39-1.11 0.12-0.36 0.23-0.72 0.35-1.09 0.21-0.75 0.41-1.53 0.54-2.37 0.3-1.65 0.44-3.45 0.56-5.34 0.06-0.95 0.13-1.92 0.19-2.9 0.02-0.47 0.04-0.94 0.06-1.41 -0.01-0.48-0.02-0.96-0.03-1.44 -0.08-1.93-0.36-3.9-0.7-5.88 -0.68-3.95-1.66-7.97-1.77-11.92 -0.06-1.97 0.09-3.9 0.47-5.7 0.24-0.87 0.43-1.73 0.7-2.54 0.29-0.79 0.51-1.59 0.83-2.3 1.18-2.91 2.52-5.16 3.58-6.68 0.57-0.74 0.99-1.33 1.38-1.71 0.36-0.38 0.55-0.58 0.55-0.58s-0.11 0.14-0.31 0.4c-0.2 0.26-0.52 0.64-0.82 1.15 -0.68 1-1.45 2.52-2.3 4.43 -1.58 3.84-3.44 9.57-2.2 15.96 0.5 3.19 1.38 6.53 2.02 10.08 0.32 1.78 0.54 3.62 0.6 5.49 0.04 0.94-0.01 1.88-0.07 2.82l-0.24 2.71c-0.17 1.81-0.38 3.65-0.78 5.44 -0.19 0.9-0.46 1.78-0.76 2.64 -0.33 0.86-0.68 1.67-1.05 2.46 -0.73 1.59-1.5 3.15-2.41 4.54 -0.46 0.69-0.94 1.36-1.48 1.9C109.35-46.59 108.63-46.16 108.38-46.28z"/>
    </g>
    <path display="inline" d="M835.98-39.87c0 0-4.65-2.97 23.43-0.37 0 0 2.42 0.53 12.28-0.03 9.41-0.53 21.46-2.4 22.5-0.43 1.05 1.97-17.45 1.3-22.33 1.47s-12.53-0.17-15.49 0C853.4-39.06 842.61-38.31 835.98-39.87z"/>
    <g display="inline" opacity="0.1">
      <path fill="#FFFFFF" d="M-129.73-122.28c0 0-3.84-2.45 4.67 0.74 2.13 0.79 5.02 1.98 8.95 3.54 3.93 1.57 8.9 3.56 15.35 5.48 1.61 0.47 3.31 1 5.13 1.38 1.81 0.41 3.7 0.92 5.73 1.21 4.01 0.78 8.53 1.22 13.43 1.86 9.82 1.07 21.37 2.13 34.95 2.15 0 0 2.34 0.08 9.45-0.08 3.55-0.08 8.3-0.18 14.53-0.32 6.24-0.08 13.98-0.18 23.49 0.61 4.54 0.32 9.21 1.02 13.92 1.84 4.68 0.97 9.41 2.07 13.94 3.68 1.13 0.4 2.29 0.74 3.39 1.19 1.11 0.45 2.21 0.9 3.31 1.35l1.64 0.67c0.53 0.26 1.06 0.51 1.59 0.77 1.06 0.51 2.1 1.02 3.14 1.53 4.19 2.05 7.87 4.78 11.05 7.6 6.37 5.69 10.72 11.86 13.57 16.64 2.83 4.82 4.16 8.31 4.17 9.43 0 0.56-0.48 0.04-1.35-1.32 -0.87-1.36-2.15-3.54-3.89-6.23 -1.73-2.69-3.93-5.88-6.64-9.2 -2.7-3.32-5.93-6.76-9.7-9.82 -0.92-0.8-1.93-1.48-2.91-2.23 -1.03-0.67-2.02-1.4-3.11-2 -1.04-0.65-2.16-1.22-3.28-1.78 -1.11-0.57-2.23-1.14-3.34-1.71 -4.55-2.03-9.11-3.91-13.55-5.16 -8.82-2.67-16.75-3.69-21.4-4.13 -18.66-2.03-48.29 0.12-59.82-0.27 -1.44-0.04-3.35-0.08-5.64-0.14 -2.29-0.08-4.98-0.08-7.95-0.32 -2.96-0.22-6.23-0.38-9.68-0.71 -1.72-0.18-3.5-0.36-5.31-0.55 -0.91-0.1-1.82-0.19-2.75-0.29 -0.92-0.09-1.86-0.2-2.8-0.36 -7.59-0.98-15.44-3.19-22.65-6.05C-117.32-116.13-123.98-119.42-129.73-122.28z"/>
    </g>
    <g display="inline" opacity="0.1">
      <path fill="#FFFFFF" d="M-14.29-200.05c0 0-0.49-0.72-0.33-0.9 0.16-0.17 1 0.2 3.68 2.49 0.63 0.62 1.36 1.36 2.22 2.25 0.88 0.87 1.72 2.04 2.78 3.31 1.97 2.64 4.29 6.15 6.53 10.9 2.27 4.74 4.41 10.68 6.77 17.86 1.19 3.59 2.46 7.48 3.99 11.65 1.53 4.17 3.35 8.61 5.83 13.16 0 0 0.21 0.4 0.73 1.4 0.26 0.5 0.66 1.11 1.15 1.91 0.51 0.78 1.06 1.77 1.86 2.87 3.06 4.47 8.68 11.72 19.44 21.54 5.12 4.7 10.86 9.42 16.48 14.07 1.41 1.16 2.8 2.32 4.19 3.47 0.68 0.61 1.38 1.2 2.03 1.82 0.64 0.64 1.3 1.25 1.9 1.91 2.44 2.6 4.51 5.38 6.25 8.12 0.87 1.38 1.65 2.74 2.37 4.08 0.33 0.71 0.66 1.4 0.97 2.08 0.29 0.69 0.51 1.38 0.76 2.04 0.89 2.68 1.41 5.12 1.83 7.16 0.21 1.02 0.4 1.95 0.58 2.79 0.19 0.83 0.35 1.55 0.47 2.19 0.28 1.25 0.44 2.13 0.33 2.58 -0.12 0.91-1.68-1.56-3.02-6.35 -0.68-2.37-1.34-5.27-2.45-8.29 -1.1-2.99-2.92-6.11-4.95-9.21 -2.04-3.09-4.48-6.07-7.22-8.65 -2.77-2.56-5.7-5.05-8.34-7.4 -5.34-4.68-9.86-8.82-12.51-11.28 -5.3-4.9-11.83-11.58-17.03-18.47 -2.59-3.44-4.93-6.87-6.71-10.02 -0.44-0.79-0.91-1.52-1.29-2.26s-0.74-1.45-1.09-2.12c-0.71-1.32-1.24-2.53-1.72-3.53 -0.98-1.98-2.42-5.34-4.09-9.57 -1.66-4.23-3.44-9.35-5.47-14.69 -2.03-5.34-4.38-10.88-7.25-15.89C-7.51-192.08-10.92-196.53-14.29-200.05z"/>
    </g>
    <g display="inline" opacity="0.1">
      <path fill="#FFFFFF" d="M94.54-44.37c0 0 0.01-0.27 0.04-0.76 0.02-0.49 0.09-1.19 0.17-2.09 0.2-1.79 0.52-4.34 1.1-7.35 1.13-6.04 3.32-13.95 6.33-21.55 2.96-7.62 6.79-14.87 9.99-20.1 1.53-2.66 3-4.75 3.98-6.24 0.99-1.49 1.56-2.33 1.56-2.33s-1.16 2.26-3.16 5.89c-0.93 1.85-2.05 4.07-3.29 6.56 -1.12 2.55-2.51 5.28-3.73 8.31 -2.58 5.99-5.12 12.8-7.32 19.65 -1.14 3.42-2.12 6.87-3.09 10.22C96.15-50.8 95.27-47.58 94.54-44.37z"/>
    </g>
    <g display="inline" opacity="0.1">
      <path fill="#FFFFFF" d="M83.48-36.87c0 0-0.11 0.02-0.33 0.06 -0.2 0.03-0.5 0.08-0.89 0.14 -0.77 0.1-1.89 0.24-3.31 0.33 -2.84 0.18-6.91 0.2-11.72-0.4 -4.81-0.58-10.36-1.79-16.06-3.83 -5.69-2.04-11.53-4.84-16.94-8.34C23.35-55.84 14.24-65.11 8.34-72.64c-0.74-0.94-1.46-1.84-2.14-2.7 -0.64-0.88-1.25-1.72-1.83-2.51 -1.15-1.57-2.14-2.95-2.89-4.13 -1.54-2.33-2.43-3.66-2.43-3.66s0.63 0.76 1.78 2.15c0.57 0.7 1.26 1.55 2.07 2.55 0.84 0.97 1.8 2.08 2.86 3.3 1.04 1.24 2.27 2.54 3.57 3.94 1.27 1.43 2.74 2.87 4.26 4.4 0.38 0.38 0.77 0.77 1.16 1.17 0.41 0.38 0.82 0.76 1.23 1.15 0.83 0.78 1.67 1.57 2.54 2.38 1.81 1.53 3.61 3.2 5.61 4.75 3.94 3.17 8.28 6.28 12.96 9.07 4.68 2.79 9.68 5.27 14.85 7.31 1.28 0.55 2.6 0.96 3.9 1.46 1.32 0.41 2.62 0.9 3.95 1.26 2.64 0.81 5.3 1.46 7.94 2.02 2.65 0.56 5.29 1.01 7.9 1.33 1.31 0.15 2.61 0.3 3.9 0.39C80.85-36.92 82.09-36.84 83.48-36.87z"/>
    </g>
    <g display="inline" opacity="0.1">
      <path fill="#FFFFFF" d="M85.62-64.31c0 0 0.59 0.8 1.29 2.1 0.71 1.3 1.49 3.09 2.35 4.83 0.44 0.87 0.92 1.7 1.42 2.45 0.52 0.73 1.04 1.4 1.56 1.89 0.24 0.26 0.5 0.47 0.72 0.66 0.22 0.2 0.42 0.35 0.6 0.46 0.34 0.24 0.54 0.37 0.54 0.37s-0.13-0.07-0.36-0.2c-0.24-0.13-0.59-0.31-0.98-0.61 -0.81-0.56-1.84-1.53-2.74-2.85 -0.92-1.3-1.69-2.91-2.38-4.51C86.93-61.33 86.28-62.91 85.62-64.31z"/>
    </g>
    <g display="inline" opacity="0.1">
      <path fill="#FFFFFF" d="M87.53-73.13c0 0 0.01 0.06 0.02 0.17 0.02 0.11 0 0.26 0.06 0.47 0.11 0.41 0.38 0.99 0.69 1.74 0.55 1.47 1.26 3.45 2.17 5.32 0.88 1.89 1.77 3.82 2.61 5.1 0.44 0.63 0.87 1.1 1.2 1.38 0.35 0.26 0.54 0.41 0.54 0.41 0.02-0.03-0.57-0.23-1.34-0.98 -0.76-0.74-1.59-2.02-2.37-3.52 -0.2-0.37-0.41-0.75-0.62-1.14 -0.19-0.41-0.39-0.82-0.59-1.24 -0.37-0.85-0.82-1.69-1.1-2.59 -0.31-0.89-0.59-1.78-0.83-2.65C87.73-71.52 87.33-72.42 87.53-73.13z"/>
    </g>
    <g display="inline" opacity="0.1">
      <path fill="#FFFFFF" d="M91.48-76.94c0 0 0.35 0.89 0.81 2.24 0.46 1.36 1 3.17 1.64 4.95 0.66 1.76 1.49 3.46 2.31 4.6 0.37 0.6 0.81 0.99 1.05 1.32 0.26 0.31 0.42 0.49 0.42 0.49s-0.43-0.41-1.1-1.07c-0.66-0.7-1.48-1.79-2.2-3.16C92.95-70.33 92.08-74.03 91.48-76.94z"/>
    </g>
    <g display="inline" opacity="0.1">
      <path fill="#FFFFFF" d="M95.91-85.25c0 0 0 0.24 0 0.65 0.02 0.41-0.03 1 0.03 1.7 0.05 1.41 0.32 3.27 0.76 5.09 0.51 1.8 1.21 3.55 1.96 4.74 0.16 0.31 0.33 0.58 0.51 0.8 0.17 0.23 0.31 0.43 0.44 0.59 0.24 0.33 0.38 0.52 0.38 0.52s-0.39-0.44-1.02-1.14c-0.6-0.75-1.34-1.89-1.96-3.31C95.74-78.43 95.28-82.37 95.91-85.25z"/>
    </g>
    <g display="inline" opacity="0.1">
      <path fill="#FFFFFF" d="M101.57-91.66c0 0 0 0.8 0.01 2 0.02 1.2 0.1 2.79 0.37 4.35 0.3 1.56 0.87 3.04 1.42 4.09 0.26 0.53 0.56 0.93 0.73 1.23 0.18 0.29 0.29 0.46 0.29 0.46s-0.31-0.4-0.79-1.03c-0.26-0.32-0.49-0.75-0.76-1.23 -0.3-0.47-0.51-1.04-0.75-1.65C101.13-85.91 101.11-89.23 101.57-91.66z"/>
    </g>
    <g display="inline" opacity="0.1">
      <path fill="#FFFFFF" d="M106.63-94.66c0 0 0.05 0.5 0.14 1.25 0.03 0.76 0.32 1.73 0.52 2.71 0.36 0.94 0.62 1.92 1.03 2.56 0.35 0.67 0.58 1.11 0.58 1.11s-0.18-0.28-0.45-0.69c-0.27-0.44-0.69-1.04-0.96-1.81C106.75-91.03 106.49-93.11 106.63-94.66z"/>
    </g>
    <g display="inline" opacity="0.1">
      <path fill="#FFFFFF" d="M97.11-50.28c0 0-0.04 0.03-0.11 0.09 -0.07-0.06-0.06-0.1-0.12-0.13 -0.02-0.01-0.05-0.02-0.08-0.01 0.01 0 0.03-0.02 0.01-0.03 -0.02-0.02 0-0.14-0.03-0.21 0-0.01-0.02 0-0.01 0 0.03-0.01 0.06-0.02 0.09-0.03 0.08-0.04 0.17-0.07 0.27-0.12 0.19-0.08 0.46-0.24 0.78-0.34 0.3-0.11 0.63-0.24 1-0.37 1.46-0.55 3.42-1.26 5.34-2.04 1.93-0.77 3.77-1.71 5.06-2.57 0.63-0.45 1.15-0.82 1.47-1.13 0.34-0.29 0.53-0.46 0.53-0.46s-0.11 0.12-0.3 0.33c-0.21 0.2-0.46 0.54-0.88 0.87 -0.78 0.72-2.01 1.58-3.5 2.38 -1.49 0.8-3.25 1.53-5.01 2.13 -0.88 0.3-1.77 0.58-2.64 0.82 -0.42 0.11-0.85 0.22-1.28 0.33l-0.61 0.19c-0.1 0.03-0.2 0.06-0.28 0.07 -0.01 0-0.02 0-0.01 0 0-0.02 0.01 0.04 0.01 0.1 -0.01 0.08 0.03 0.07 0.01 0.1 0.01-0.01 0.15 0.04 0.16 0.13l0.02-0.01L97.11-50.28z"/>
    </g>
    <g display="inline" opacity="0.1">
      <path fill="#FFFFFF" d="M98.12-57.3c0-0.02 0.23 0.04 0.65-0.03 0.42-0.06 1.02-0.23 1.71-0.56 1.4-0.62 3.05-1.87 4.87-2.93 1.82-1.02 3.63-2.02 4.91-2.87 0.66-0.4 1.13-0.84 1.49-1.1 0.35-0.27 0.56-0.43 0.56-0.43s-0.47 0.44-1.23 1.15c-0.79 0.7-2 1.57-3.43 2.45 -0.71 0.45-1.47 0.9-2.26 1.36 -0.77 0.48-1.55 0.97-2.34 1.47 -0.8 0.48-1.63 0.92-2.48 1.22C99.75-57.25 98.84-57.1 98.12-57.3z"/>
    </g>
    <g display="inline" opacity="0.1">
      <path fill="#FFFFFF" d="M99.7-63.56c0.04-0.01-0.2 0.15-0.31 0.13l-0.03 0.01 0 0 -0.02-0.09c-0.01-0.04-0.01-0.06-0.02-0.09 -0.02-0.07-0.04-0.03 0-0.06 0.02-0.01 0.03-0.03 0.05-0.06 0.03-0.04 0.06-0.07 0.08-0.11 0 0 0 0 0.01 0l0 0c0.06-0.01 0.13-0.02 0.21-0.03 0.21-0.04 0.47-0.06 0.76-0.14 0.29-0.09 0.62-0.18 0.97-0.31 1.42-0.53 3.16-1.59 4.93-2.65 3.6-1.99 7.19-3.97 7.19-3.97s-2.07 1.47-4.9 3.19c-0.72 0.43-1.47 0.88-2.23 1.34 -0.77 0.47-1.56 0.95-2.38 1.37 -0.81 0.44-1.68 0.79-2.53 1.05 -0.44 0.1-0.86 0.21-1.28 0.23l-0.62 0.01c-0.05 0-0.11 0-0.12 0 -0.01 0-0.01-0.01-0.02-0.02 0 0 0 0 0-0.01 0 0 0-0.01 0-0.01l0 0 -0.05 0.07c-0.02 0.04-0.04 0.06-0.07 0.07 -0.02 0.01 0 0 0.01 0.03 0.03 0.05 0.02 0.06 0.05 0.15 0.01 0.03 0.01 0.01 0.01 0.02l0.08 0C99.47-63.46 99.6-63.47 99.7-63.56z"/>
    </g>
    <g display="inline" opacity="0.1">
      <path fill="#FFFFFF" d="M101.93-70.35c0 0 0.18-0.04 0.5-0.1 0.32-0.08 0.77-0.25 1.27-0.55 1.04-0.55 2.26-1.56 3.6-2.45 2.74-1.64 5.35-3.41 5.35-3.41s-0.39 0.32-1.01 0.82c-0.64 0.5-1.53 1.21-2.6 1.92 -0.54 0.36-1.11 0.73-1.68 1.11 -0.57 0.4-1.14 0.81-1.73 1.22C104.48-71.02 103.12-70.27 101.93-70.35z"/>
    </g>
    <g display="inline" opacity="0.1">
      <path fill="#FFFFFF" d="M106.28-79.22c0 0 1.6-1.28 3.29-2.41 0.8-0.61 1.66-1.17 2.19-1.71 0.56-0.51 0.93-0.85 0.93-0.85s-0.22 0.25-0.55 0.61c-0.35 0.38-0.83 0.93-1.49 1.43 -0.63 0.53-1.37 1.07-2.14 1.57C107.73-80.1 107-79.59 106.28-79.22z"/>
    </g>
    <g display="inline" opacity="0.1">
      <path fill="#FFFFFF" d="M108.52-87.45c0 0 0.06 0.01 0.15 0.03 0.1 0 0.25-0.02 0.42-0.1 0.35-0.15 0.76-0.46 1.15-0.79 0.4-0.33 0.78-0.68 1.09-0.92 0.31-0.24 0.55-0.36 0.55-0.36s-0.15 0.09-0.35 0.26c-0.2 0.17-0.47 0.43-0.77 0.71 -0.3 0.28-0.65 0.6-1.04 0.87C109.37-87.5 108.86-87.25 108.52-87.45z"/>
    </g>
    <g display="inline" opacity="0.1">
      <path fill="#FFFFFF" d="M76.29-38.97c0 0 0.02-0.88 0.05-2.2 0-1.32 0.15-3.07 0.26-4.82 0.11-1.74 0.27-3.49 0.28-4.8 0.04-1.31 0.07-2.18 0.07-2.18s0.04 0.55 0.09 1.43c0.05 0.89 0.12 2.14 0.06 3.56 -0.04 1.42-0.11 3-0.26 4.55C76.68-41.86 76.58-40.33 76.29-38.97z"/>
    </g>
    <g display="inline" opacity="0.1">
      <path fill="#FFFFFF" d="M69.48-40.92v-12.68C69.48-53.61 70.37-45.81 69.48-40.92z"/>
    </g>
    <g display="inline" opacity="0.1">
      <path fill="#FFFFFF" d="M58-43.85c0 0 0.04-1.18 0.09-2.96 0.02-1.78 0.21-4.13 0.35-6.49 0.1-2.35 0.3-4.71 0.23-6.47 -0.01-1.76-0.02-2.93-0.02-2.93s0.08 0.73 0.2 1.91c0.11 1.2 0.28 2.88 0.23 4.79 0 1.91-0.09 4.05-0.29 6.15C58.57-47.75 58.41-45.67 58-43.85z"/>
    </g>
    <g display="inline" opacity="0.1">
      <path fill="#FFFFFF" d="M48.55-47.67c0 0-0.07-0.32-0.2-0.88 -0.12-0.56-0.26-1.38-0.31-2.36 -0.16-1.97 0.05-4.58 0.42-7.14 0.38-2.56 0.84-5.1 1.08-7.01 0.26-1.91 0.3-3.19 0.3-3.19s0.01 0.2 0.02 0.56c0.02 0.36 0.03 0.89 0.01 1.55 -0.02 1.32-0.17 3.16-0.42 5.23C48.95-56.76 48.15-51.77 48.55-47.67z"/>
    </g>
    <g display="inline" opacity="0.1">
      <path fill="#FFFFFF" d="M39.19-51.65c0 0 0.11-3.83 0.22-7.65 0.05-3.81 0.11-7.63 0.11-7.63s0.23 2.34 0.32 5.43C39.95-58.4 39.8-54.61 39.19-51.65z"/>
    </g>
    <g display="inline" opacity="0.1">
      <path fill="#FFFFFF" d="M31.55-57.28c0 0-0.1-0.03-0.23-0.14 -0.11-0.11-0.23-0.28-0.31-0.49 -0.17-0.43-0.28-1.03-0.36-1.74 -0.15-1.43-0.17-3.34-0.14-5.24 0.03-1.9 0.11-3.8 0.16-5.22 0.06-1.42 0.07-2.36 0.07-2.36s0.07 0.58 0.11 1.55c0.05 0.97 0.09 2.32 0.11 3.85 0.02 1.53 0.02 3.24 0 4.93 0 0.83 0 1.66 0 2.5 0.01 0.41 0.02 0.81 0.07 1.2 0.02 0.2 0.06 0.39 0.11 0.59C31.21-57.67 31.26-57.44 31.55-57.28z"/>
    </g>
    <g display="inline" opacity="0.1">
      <path fill="#FFFFFF" d="M20.07-64.99c0 0 0.02-2.69 0.03-5.37 -0.06-1.34-0.05-2.68-0.19-3.67 -0.1-1-0.17-1.66-0.17-1.66s0.09 0.42 0.22 1.07c0.13 0.67 0.32 1.62 0.37 2.7C20.53-69.75 20.44-67.06 20.07-64.99z"/>
    </g>
    <g display="inline" opacity="0.1">
      <path fill="#FFFFFF" d="M55.67-29.92c0 0 0.37-0.04 1.02-0.11 0.33-0.02 0.72-0.12 1.17-0.21 0.45-0.08 0.95-0.23 1.5-0.39 2.2-0.61 5.01-1.91 8.04-2.72 1.5-0.39 2.98-0.78 4.35-1.19 1.36-0.44 2.62-0.87 3.63-1.4 0.52-0.23 0.96-0.49 1.35-0.73 0.4-0.22 0.73-0.44 0.99-0.65 0.52-0.39 0.82-0.62 0.82-0.62s-0.17 0.16-0.48 0.45c-0.16 0.14-0.35 0.32-0.57 0.53 -0.23 0.2-0.52 0.39-0.84 0.62 -1.26 0.92-3.26 1.91-5.64 2.69 -1.19 0.4-2.46 0.76-3.76 1.13 -1.27 0.38-2.57 0.83-3.88 1.28C60.79-30.37 58.01-29.63 55.67-29.92z"/>
    </g>
    <g display="inline" opacity="0.1">
      <path fill="#FFFFFF" d="M44.44-29.52l-1.2 0.36 -0.14-0.72c3.61-0.68 6.97-2.34 10.19-4.17 3.23-1.84 6.35-3.9 9.72-5.57 0 0-0.71 0.47-1.87 1.23 -1.16 0.79-2.78 1.88-4.62 3.12 -1.86 1.23-3.99 2.59-6.31 3.65 -2.27 1.14-4.82 1.75-7.07 1.93 0.02 0.12 0.05 0.23 0.07 0.34C43.63-29.41 44.04-29.47 44.44-29.52z"/>
    </g>
    <g display="inline" opacity="0.1">
      <path fill="#FFFFFF" d="M37.84-35c0 0 0.25 0.02 0.69 0.05 0.45 0 1.09-0.04 1.85-0.17 1.53-0.28 3.53-0.94 5.46-1.77 1.93-0.83 3.81-1.79 5.18-2.57 1.38-0.77 2.25-1.35 2.25-1.35s-2 1.68-5.03 3.31c-1.5 0.82-3.26 1.63-5.09 2.17 -0.91 0.28-1.85 0.46-2.76 0.56C39.49-34.71 38.59-34.76 37.84-35z"/>
    </g>
    <g display="inline" opacity="0.1">
      <path fill="#FFFFFF" d="M25.65-40.2c0 0 1.06-0.43 2.64-1.07 1.56-0.71 3.76-1.3 5.92-2.01 4.36-1.23 8.72-2.46 8.72-2.46s-2.59 1.07-6.06 2.21c-0.88 0.28-1.8 0.57-2.74 0.87 -0.94 0.31-1.91 0.62-2.88 0.9 -0.48 0.14-0.98 0.26-1.45 0.41l-1.41 0.45C27.45-40.63 26.53-40.39 25.65-40.2z"/>
    </g>
    <g display="inline" opacity="0.1">
      <path fill="#FFFFFF" d="M18.62-45.4c0 0 0-0.01-0.01-0.04l-0.01-0.04c0 0.01 0-0.09 0.03-0.15 0.02-0.06 0.12-0.13 0.11-0.12 0.04-0.02 0.1-0.05 0.13-0.06 0.14-0.05 0.32-0.09 0.55-0.14 0.45-0.1 1.1-0.22 1.87-0.37 1.55-0.29 3.61-0.6 5.61-1.19 2.01-0.55 3.96-1.28 5.32-2.02 0.67-0.38 1.23-0.7 1.59-0.97 0.37-0.25 0.58-0.4 0.58-0.4s-0.12 0.11-0.34 0.29c-0.23 0.18-0.53 0.49-0.98 0.78 -0.85 0.65-2.16 1.38-3.74 2.02 -1.59 0.63-3.41 1.18-5.28 1.49 -0.93 0.15-1.85 0.26-2.75 0.34 -0.44 0.04-0.88 0.07-1.32 0.11l-0.64 0.05 -0.32 0.03c-0.05 0.01-0.11 0.02-0.18 0.03l-0.07 0.03c-0.01 0.01-0.01-0.01-0.08 0.07 -0.05 0.05-0.07 0.17-0.06 0.19C18.62-45.43 18.62-45.43 18.62-45.4z"/>
    </g>
    <g display="inline" opacity="0.1">
      <path fill="#FFFFFF" d="M15.15-55.09c0 0 0.18 0.09 0.5 0.26 0.32 0.15 0.81 0.32 1.42 0.43 1.22 0.24 2.93 0.12 4.57-0.27 1.64-0.41 3.21-1.06 4.28-1.73 0.54-0.32 0.96-0.64 1.23-0.87 0.27-0.24 0.42-0.38 0.42-0.38s-0.09 0.1-0.24 0.27c-0.15 0.18-0.4 0.42-0.73 0.7 -0.66 0.55-1.69 1.23-2.98 1.77 -1.28 0.55-2.81 0.95-4.37 1.01C17.72-53.82 16.11-54.23 15.15-55.09z"/>
    </g>
    <g display="inline" opacity="0.1">
      <path fill="#FFFFFF" d="M10.19-64.14c0 0 0.5 0.09 1.25 0.23 0.74 0.19 1.77 0.17 2.79 0.26 0.51-0.03 1.02-0.05 1.49-0.08 0.24-0.02 0.47-0.01 0.69-0.04 0.21-0.04 0.42-0.08 0.6-0.12 0.75-0.15 1.25-0.24 1.25-0.24s-0.32 0.1-0.8 0.24c-0.26 0.07-0.57 0.16-0.89 0.25 -0.34 0.1-0.73 0.1-1.15 0.15C13.76-63.25 11.65-63.55 10.19-64.14z"/>
    </g>
    <path display="inline" d="M850.21-73.24c0 0-1.92 2.88 2.88 3.52 2.04 0.28 2.75-1.54 2.6-2.35C855.53-72.88 852.47-77.13 850.21-73.24z"/>
    <g display="inline" opacity="0.1">
      <path fill="#FFFFFF" d="M-140.23-128.35c0 0-0.41 0.27-1.11 0.74 -0.07 0.04-0.14 0.07-0.22 0.11 -0.02 0.04-0.07 0.06-0.11 0.03 0.03 0.01-0.09 0.21-0.18 0.33 -0.13 0.18-0.47 0.66-0.6 0.8 0.01-0.03 0.05-0.04 0.07-0.06 0.22-0.15 0.65-0.26 0.95-0.57 0.33-0.3 0.6-0.73 0.8-1.12 0.05-0.11 0.1-0.22 0.15-0.34 0.07-0.1 0.14-0.2 0.19-0.32 0.02-0.06 0.04-0.13 0.04-0.2 -0.01-0.08 0.03-0.14-0.15-0.34 -0.06-0.05-0.13-0.1-0.2-0.14l-0.11-0.07 -0.01-0.01 -0.08-0.04c-0.13-0.05-0.28-0.1-0.47-0.14 -0.37-0.07-0.9-0.04-1.35 0.18 -0.46 0.21-0.76 0.55-0.93 0.8 -0.04 0.07-0.08 0.13-0.11 0.19l-0.05 0.1c-0.03 0.07-0.06 0.14-0.09 0.21 -0.11 0.29-0.16 0.66-0.12 1 0.02 0.17 0.05 0.34 0.1 0.49 0.02 0.08 0.05 0.15 0.08 0.21 0.04 0.08 0.01 0.03 0.02 0.05l0.02 0.06c0.03 0.09 0.06 0.17 0.1 0.26l0.01 0.1c0.03 0.15 0.01 0.22 0.02 0.33l0.64 0.6c0.11 0.19 0.25 0.39 0.43 0.6 0.19 0.21 0.5 0.43 0.86 0.64 0.22 0.1 0.47 0.19 0.74 0.26 0.26 0.08 0.66 0.1 1.01 0.1 0.37 0 0.84-0.1 1.27-0.24 0.43-0.17 0.92-0.42 1.29-0.74 0.83-0.67 1.31-1.54 1.59-2.43 0.25-0.86 0.28-1.74 0.14-2.58 -0.15-0.82-0.47-1.65-0.95-2.34 -0.24-0.37-0.51-0.68-0.81-0.99l-0.06-0.06 -0.03-0.03 -0.01-0.01 -0.01-0.01 -0.22-0.18 -0.04-0.04 -0.08-0.09L-138-133.43c-0.55-0.43-1.3-0.85-2.02-1.05 -0.76-0.23-1.84-0.33-2.91-0.05 -1.1 0.3-2.04 0.96-2.59 1.63 -0.57 0.67-0.82 1.29-0.99 1.83 -0.28 1.06-0.15 1.78 0.01 2.36 0.18 0.57 0.45 0.98 0.74 1.28 0.58 0.6 1.23 0.78 1.76 0.77 0.53-0.01 0.96-0.19 1.26-0.4 0.29-0.2 0.79-0.9 1.53-1.32 0.19-0.1 0.38-0.19 0.58-0.22 0.1-0.01 0.2-0.03 0.3-0.01 -0.04 0-0.24-0.04-0.36-0.08 -0.27-0.06-0.57-0.21-0.75-0.34 -0.21-0.18-0.2-0.24-0.2-0.19 0.02 0.08 0.01 0.12 0 0.31 -0.01 0.09-0.03 0.12-0.06 0.24 -0.02 0.12-0.06 0.23-0.1 0.33 -0.07 0.17-0.27 0.51-0.48 0.71 -0.28 0.12-0.34 0.63-0.49 0.99l-0.1 0.29 -0.05 0.15 -0.02 0.07 -0.01 0.04 0 0.01 0.92-1.49 0 0c0.02-0.03 0.05-0.06 0.08-0.09 0.07-0.06 0.11-0.1 0.17-0.14 0.11-0.08 0.22-0.13 0.37-0.17 0.15-0.03 0.35-0.06 0.57 0.01 0.22 0.05 0.38 0.22 0.35 0.2 -0.02-0.02-0.09-0.26 0.01-0.66 0.05-0.2 0.13-0.47 0.25-0.68 0.11-0.24 0.01-0.05-0.03 0 -0.05 0.08-0.12 0.16-0.19 0.23 0.17 0.15 0.33 0.3 0.49 0.45C-140.06-128.42-140.17-128.42-140.23-128.35z"/>
    </g>
    <g display="inline" opacity="0.1">
      <path fill="#FFFFFF" d="M-156.58-139.21c0 0 0.01-0.16 0.11-0.37 0.05-0.16 0.13-0.33 0.24-0.49l0.1-0.14 -0.07 0.12c-0.05 0.09-0.11 0.17-0.18 0.26 -0.13 0.19-0.36 0.31-0.58 0.45 -0.22 0.14-0.45 0.31-0.67 0.49 -0.44 0.37-0.87 0.81-1.22 1.34 -0.17 0.27-0.33 0.56-0.45 0.87 -0.03 0.08-0.07 0.15-0.08 0.25 0.02 0.12 0.04 0.24 0.08 0.36 0.08 0.25 0.18 0.53 0.38 0.82 0.1 0.14 0.22 0.29 0.36 0.44 0.07 0.08 0.14 0.15 0.23 0.22 0.11 0.08 0.23 0.16 0.36 0.24 0.13 0.08 0.27 0.15 0.41 0.22 0.13 0.07 0.3 0.14 0.52 0.19 0.43 0.1 0.84 0.2 1.4 0.17 0.55-0.03 1.14-0.13 1.68-0.35 0.27-0.1 0.57-0.25 0.81-0.39 0.23-0.13 0.46-0.28 0.68-0.46 0.11-0.08 0.23-0.18 0.33-0.27l0.26-0.24c0.17-0.16 0.34-0.34 0.5-0.53 0.25-0.29 0.53-0.68 0.72-0.98 0.78-1.28 1.16-2.43 1.33-3.77 0.08-0.67 0.09-1.4-0.04-2.26 -0.15-0.86-0.41-1.9-1.27-3.21 -0.11-0.16-0.23-0.32-0.35-0.48 -0.15-0.18-0.3-0.36-0.47-0.53 -0.17-0.17-0.33-0.34-0.52-0.51 -0.21-0.18-0.43-0.35-0.66-0.52 -0.44-0.33-0.99-0.63-1.58-0.87 -0.59-0.25-1.2-0.41-1.85-0.53 -0.67-0.12-1.2-0.12-1.83-0.11 -0.32 0.01-0.57 0.04-0.82 0.08 -0.25 0.04-0.51 0.08-0.77 0.14l-0.38 0.09 -0.3 0.09c-0.2 0.06-0.4 0.13-0.6 0.2 -0.44 0.16-0.74 0.3-1.04 0.45 -0.68 0.34-1.1 0.61-1.6 0.94 -0.23 0.16-0.4 0.29-0.6 0.44l-0.29 0.23 -0.07 0.06 -0.04 0.03c0.06-0.07-0.63 0.66-0.34 0.36l-0.01 0.01 -0.06 0.05 -0.13 0.1c-0.07 0.07 0-0.04-0.29 0.29 -0.41 0.47-0.83 1.04-1.12 1.54 -0.56 0.98-1.1 2.22-1.26 3.81 -0.08 0.65-0.06 1.33 0 1.98 0.07 0.65 0.21 1.26 0.4 1.86 0.18 0.54 0.42 1.1 0.67 1.56 0.24 0.43 0.53 0.91 0.8 1.25 1.12 1.46 2.26 2.25 3.31 2.82 2.11 1.06 4.05 1.31 6.11 1.01 1-0.15 2.07-0.5 3.02-1.02 0.98-0.54 1.85-1.25 2.5-2.07 0.65-0.81 1.07-1.68 1.28-2.44 0.13-0.4 0.16-0.73 0.2-1.07 0.03-0.34 0.04-0.65 0-0.92 -0.03-0.27-0.07-0.53-0.13-0.77 -0.06-0.23-0.15-0.42-0.23-0.6 -0.16-0.38-0.37-0.67-0.59-0.89 -0.43-0.48-0.91-0.73-1.37-0.88 -0.91-0.3-1.74-0.2-2.37 0.01 -0.32 0.1-0.76 0.39-1.35 0.66 -0.29 0.14-0.62 0.25-0.96 0.3 -0.16 0.03-0.35 0.01-0.52-0.01l-0.12-0.02c-0.07-0.02-0.04-0.02 0 0 0.06 0.02 0.12 0.05 0.19 0.08 0.19 0.08 0.31 0.22 0.25 0.15 -0.04-0.05-0.17-0.28-0.22-0.61 -0.06-0.32-0.03-0.73 0.01-0.88 0.04-0.17 0.04-0.05-0.17 0.3 -0.19 0.33-0.69 0.81-1 0.94 -0.19 0.08-0.22 0.07-0.22 0.07 0.07 0 0.04 0.01 0.17 0.03 0.05 0.01 0.09 0.03 0.13 0.05 0.06 0.02 0.14 0.05 0.2 0.08 0.11 0.05 0.28 0.18 0.4 0.35 0.08 0.07 0.05 0.2 0.22 0.22l0.4 0.12 0.2 0.06 0.1 0.03 0.03 0.01 0.01 0c-0.48-0.56 4.23 4.88 2.23 2.57l-0.06-0.06c-0.16-0.15-0.32-0.31-0.47-0.47 -0.3-0.31-0.61-0.72-0.86-1.01 -0.25-0.28-0.48-0.59-0.69-0.93 -0.2-0.28-0.36-0.52-0.5-0.82 -0.14-0.27-0.24-0.44-0.3-0.71 -0.07-0.17-0.1-0.37-0.12-0.5 -0.03-0.27 0.03-0.29-0.02-0.21 -0.06 0.11-0.27 0.38-0.59 0.56 -0.63 0.46-1.65 0.66-1.73 0.66 -0.01 0-0.04 0 0.07 0l0.13 0c0.07 0 0.15 0 0.22 0.01 0.32 0.02 0.82 0.1 1.3 0.26 0.49 0.17 0.92 0.42 1.08 0.61C-156.51-138.93-156.64-138.92-156.58-139.21z"/>
    </g>
    <g display="inline" opacity="0.1">
      <path fill="#FFFFFF" d="M32.85-107.97c-0.02 0-0.32 0.39-0.18 0.8 0.05 0.2 0.17 0.43 0.22 0.64 0.12 0.19 0.04 0.48 0.98 0.57 -0.44-0.19-0.88-0.38-1.39-0.6 0.03 0.05 0.07 0.1 0.16 0.19 0.09 0.08 0.21 0.22 0.56 0.35 0.32 0.15 1.03 0.07 1.35-0.25 0.33-0.3 0.4-0.53 0.45-0.67 0.04-0.14 0.05-0.23 0.06-0.29 0.01-0.07 0-0.02 0.01-0.04l0-0.02 0.02-0.06 0.03-0.1c0.02-0.06 0.04-0.13 0.06-0.19 0.02-0.07 0.03-0.14 0.05-0.21l0.02-0.13 0.01-0.08c0-0.07-0.01-0.22-0.03-0.32l-0.13-0.75 -0.76-0.36c-0.3-0.14-0.65-0.29-1.05-0.29 -0.13-0.01-0.25-0.01-0.35 0l-1.1 0.05 -0.29 1.1c-0.09 0.33-0.18 0.54-0.1 1.15 0.01 0.19 0.19 0.64 0.39 0.89 0.19 0.24 0.4 0.37 0.61 0.49 0.12 0.04 0.23 0.07 0.34 0.09 0.1 0.01 0.12-0.02 0.18-0.03 0.12-0.02 0.14-0.09 0.22-0.15 0.22-0.26 0.56-0.52 0.7-0.73 0.09-0.11 0.13-0.53-0.05-0.98 -0.03-0.11-0.08-0.22-0.03-0.29l0.01-0.03 0.01-0.01 -0.11 0.18 -0.06 0.09 -0.01 0.02 -0.01 0.03 -0.04 0.06c-0.03 0.07-0.21 0.19-0.13 0.14 0.01 0 0.02-0.01 0.03 0 0 0 0 0.01 0.09-0.02 0.13-0.03 0.26-0.03 0.38 0 0.09 0.02 0.59 0.06 0.64 0.09 0.03 0.01 0.05 0.02 0.07 0.02 -0.44 0.18-0.9 0.36-1.35 0.55 -0.01-0.03-0.02-0.07 0-0.13 0 0.04-0.02 0.08-0.03 0.09 0.13-0.29 0.26-0.6 0.38-0.9 -0.44 0.11-0.9 0.15-1.35 0.12 -0.06-0.02-0.38 0-0.29 0v0.01l0 0.01 0.01 0.06c0.01 0.05 0.02 0.1 0.03 0.15 0.02 0.05 0.04 0.11 0.06 0.16 0.01 0.02 0.03 0.05 0.04 0.07l0.02 0.01c0.01 0-0.01 0 0.02 0l0.31 0.02c0.19 0 0.46 0.06 0.58 0.02 0.05-0.03 0.11-0.06 0.19-0.12 0.07-0.05 0.23-0.15 0.39-0.11 0.27 0.14 0.09 0.27 0.03 0.31l-0.16-0.9c-0.02-0.11-0.04-0.22-0.06-0.33l-0.02-0.17c-0.01-0.05 0-0.01 0-0.01l0 0.08c0.02 0.06-0.08 0.12-0.12 0.19C33.2-108.35 32.98-108.18 32.85-107.97z"/>
    </g>
    <g display="inline" opacity="0.1">
      <path fill="#FFFFFF" d="M58.08-105.73c0.05 0.06-0.67 0.17-1.28 0.65 -0.3 0.24-0.58 0.57-0.73 1.02 -0.11 0.19-0.05 0.55 0.17 0.98 0.16 0.23 0.43 0.48 0.76 0.72 0.28 0.18 0.63 0.34 1.05 0.47l1.64 0.5 1.01-2.79c0.09-0.25 0.19-0.52 0.23-0.95 0.03-0.18 0.01-0.5-0.02-0.78 -0.03-0.18-0.08-0.37-0.14-0.56 -0.05-0.19-0.19-0.46-0.32-0.69 -0.29-0.49-0.85-1.03-1.48-1.32 -0.29-0.14-0.64-0.25-0.88-0.29 -0.13-0.03-0.28-0.05-0.41-0.06l-0.34-0.02c-0.88-0.01-1.37 0.14-1.8 0.24 -0.11 0.03-0.22 0.06-0.32 0.1l-0.07 0.02 -0.01 0c-2.51 1.8-0.7 0.5-1.26 0.9l0 0 0 0 -0.01 0.01 -0.02 0.02c-0.32 0.37-0.66 1.02-0.75 1.65 -0.05 0.31-0.06 0.62-0.03 0.89l0.02 0.16c0.03 0.18 0.08 0.43 0.12 0.54l0.12 0.35c0.08 0.21 0.17 0.38 0.26 0.55 0.39 0.63 0.86 1.24 1.9 1.74 0.29 0.12 0.54 0.21 0.87 0.27 0.33 0.05 0.67 0.07 0.97 0.03 0.3-0.04 0.59-0.12 0.85-0.22 0.26-0.1 0.4-0.22 0.58-0.34 0.37-0.26 0.5-0.48 0.63-0.69 0.06-0.11 0.12-0.21 0.16-0.31 0.02-0.08 0.04-0.17 0.05-0.25 0.12-0.66-0.15-1.03-0.38-1.33 -0.25-0.28-0.54-0.45-0.79-0.52 -0.22-0.09-0.74-0.02-1.25-0.19 -0.06-0.02-0.12-0.03-0.17-0.08 -0.04-0.02-0.14-0.16-0.01 0.01 0.08 0.13 0.13 0.18 0.17 0.24 0.04 0.06 0.07 0.19 0.07 0.18 0.02 0.08-0.01 0.07 0.05-0.08 0.02-0.03 0.03-0.06 0.06-0.09 0.03-0.05 0.06-0.1 0.09-0.14 0.07-0.07 0.16-0.18 0.26-0.27 0.11-0.08 0.18-0.16 0.28-0.21 0.07-0.05 0.1-0.06 0.11-0.06 -0.11 0.06-0.1 0.05-0.42 0.17l-0.44 0.13c-0.18 0.07-0.39 0.01-0.56 0.15 -0.09 0.04-0.22-0.01-0.25-0.06l-0.02-0.06 0-0.01 0-0.01 0 0c-0.98-2.47 1.34 3.36 1.1 2.76l0.01 0 0.1 0.02c0.07 0.01 0.11 0.03 0.15 0.03 0.03 0.02 0.07 0.03 0.07 0.05l-0.15-0.6c-0.05-0.18-0.09-0.36-0.12-0.55 -0.13-0.64-0.11-1.1-0.05-1.31 0.06-0.22 0.12-0.14-0.13 0l-0.22 0.09c-0.1 0.04-0.16 0.04-0.28 0.07 -0.13 0.04-0.25 0.06-0.38 0.08 -0.12 0.01-0.25 0.02-0.43 0.04 -0.17 0.02-0.33 0.03-0.49 0.02 -0.06 0-0.22 0-0.19-0.01 0.02 0 0.03 0.01 0.04 0.01 0.07 0.02 0.13 0.05 0.2 0.08 0.9-0.7 1.79-1.39 2.69-2.08 0.03 0.21 0.02 0.44-0.03 0.66 -0.04 0.21-0.18 0.52-0.12 0.39 0.02-0.02 0.03-0.03 0.05-0.03l0.15-0.22c0 0-0.02 0.02-0.03 0.03l-0.07 0.07C58.2-105.82 58.14-105.77 58.08-105.73z"/>
    </g>
    <g display="inline" opacity="0.1">
      <path fill="#FFFFFF" d="M44.83-114.28c-0.02 0-0.15 0.31 0.02 0.56 0.08 0.13 0.14 0.26 0.21 0.39 0.01 0.03 0.04 0.06 0.09 0.1 0.02 0.02 0.04 0.03 0.1 0.05 0.08 0.01 0.06 0.04 0.23 0.04 0.18-0.03 0.3 0.01 0.57-0.22 0.11-0.09 0.23-0.26 0.27-0.35 0.03-0.07 0.05-0.15 0.07-0.23 0.02-0.08 0.03-0.17 0.04-0.24l0-0.12 0-0.13 0-0.07 0-0.03 0-0.02 0-0.01v0 0c0.13 0.15-1.15-1.31-0.61-0.69 -0.08-0.03-0.16-0.05-0.23-0.07l-0.11-0.02 -0.05-0.01 -0.13 0c-0.2 0.02-0.3 0.02-0.53 0.14 -0.3 0.15-0.5 0.55-0.48 0.64 -0.05 0.4 0.03 0.38 0.07 0.48l0.06 0.01 0.04 0.01c0.02 0-0.02 0 0.04 0 0.24 0.01 0.17 0 0.19 0l0.04-0.01c0.09-0.02 0.24 0.05 0.23 0.05 0-0.01 0-0.01 0-0.01l0.01 0c0 0 0.04 0.07 0.05 0.09 0.02 0.03 0.08 0.09 0.21 0.05 0.1-0.04 0.22-0.18 0.3-0.29 0.02-0.03 0.05-0.04 0.07-0.05l0.03-0.02 0.01 0 0 0 0 0 0 0h-0.06 0l-0.01 0c-0.02 0.01-0.04 0.01-0.07 0.01 -0.08 0.02-0.21-0.02-0.26-0.05 0.01 0.01 0 0.01 0 0.02 0.05 0.09 0.07 0.19 0.05 0.28 -0.01 0.05-0.02 0.09-0.04 0.14l-0.01 0.16 -0.01 0.08 0 0.01c0.01 0.03 0.02 0.06 0.02 0.09 -0.19-0.22-0.39-0.44-0.59-0.66 -0.01 0.02-0.02 0.03-0.03 0.04l0 0.02c-0.03 0 0.14 0 0.2 0 0.1 0.01 0.09-0.02 0.14-0.02 0.08-0.01 0.16-0.01 0.24 0.01 0.06 0.01 0.2 0.09 0.17 0.06 0.01 0 0.02 0 0.03 0.01 -0.01-0.02-0.06-0.13-0.06-0.19 0-0.04 0-0.08 0.01-0.11 0-0.03 0.01 0.04 0-0.08l-0.01-0.28c0-0.06 0-0.02 0-0.03l0 0.01 -0.02 0.04c0.01 0.03-0.1 0.06-0.14 0.1C45.07-114.55 44.91-114.44 44.83-114.28z"/>
    </g>
    <g display="inline" opacity="0.1">
      <path fill="#FFFFFF" d="M51.96-113.89c-0.01 0.02-0.22-0.06-0.44 0.01 -0.13 0.03-0.35 0.02-0.45 0.23 -0.05 0.09-0.08 0.23-0.06 0.39 0.01 0.08 0.02 0.17 0.07 0.29 0.03 0.06 0.05 0.12 0.12 0.2 0.06 0.07 0.15 0.2 0.46 0.31l1-0.43c0.05 0.02 0.09 0.04 0.11 0.06 -0.02 0.04 0.1-0.07 0.17-0.12 0.08-0.06 0.16-0.14 0.24-0.21 0.03-0.03 0.05-0.05 0.07-0.07l0.51-0.51 -0.58-0.76c-0.07-0.1-0.16-0.18-0.27-0.28l-0.12-0.08c-0.05-0.03-0.05-0.04-0.17-0.1 -0.05-0.02-0.09-0.04-0.14-0.06l-0.08-0.03c-0.07-0.02-0.14-0.04-0.21-0.04 -0.16-0.01-0.26-0.01-0.44 0.04 -0.2 0.06-0.4 0.21-0.51 0.36 -0.25 0.42-0.16 0.54-0.17 0.62 0.01 0.08 0.04 0.12 0.06 0.15 0.06 0.07 0.07 0.07 0.17 0.09 0.61 0.06 0.55 0.12 0.58 0.13 0 0 0 0 0 0 0 0.05 0.09 0.12 0.21 0.05 0.12-0.06 0.23-0.17 0.33-0.26 0.03-0.01 0.05-0.05 0.08-0.05l0.02 0 0.01 0 0.01 0 -0.07-0.01c-0.11 0-0.17-0.01-0.26-0.03 -0.15-0.02-0.17-0.08-0.16-0.05 0.01 0.03-0.05 0.19-0.14 0.29 -0.05 0.07-0.13 0.19-0.2 0.27 -0.05 0.06-0.06 0.06-0.06 0.06l-0.01 0.01c-0.01 0.02-0.01 0.05-0.01 0.08 -0.01 0.05 0.01 0.12 0.02 0.17 0.17-0.26 0.34-0.53 0.51-0.8l-0.58-0.39h0H51.55l-0.01 0 -0.01 0 -0.02 0 -0.04 0c-0.02 0-0.04 0.01-0.05 0.02 -0.12 0.11-0.31 0.35-0.38 0.55l0.87 0.38c0.02-0.08 0.14-0.24 0.28-0.35 0.07-0.06 0.14-0.11 0.21-0.16 0 0.01-0.03 0.02-0.05 0.03C52.24-113.9 52.12-113.88 51.96-113.89z"/>
    </g>
    <g display="inline" opacity="0.1">
      <path fill="#FFFFFF" d="M56.88-105.71c0 0-0.01 0.2 0.08 0.37 0.05 0.08 0.14 0.14 0.31 0.14 0.18 0.01 0.45-0.1 0.71-0.42 0.22-0.29 0.18-0.55 0.09-0.69 -0.09-0.15-0.23-0.2-0.33-0.19 -0.11 0.01-0.43 0.14-0.64 0.2 -0.11 0.03-0.17 0.07-0.21 0.14C56.87-106.08 56.87-105.97 56.88-105.71z"/>
    </g>
    <g display="inline" opacity="0.1">
      <path fill="#FFFFFF" d="M55.16-105.1c0 0 0.27 0.18 0.58 0.17 0.16-0.01 0.33-0.06 0.48-0.2 0.08-0.07 0.15-0.16 0.22-0.28 0.08-0.08 0.15-0.17 0.2-0.27 -0.46 0.22-0.93 0.43-1.49 0.69 0.07 0.09 0.16 0.18 0.27 0.28 0.3 0.23 0.47 0.25 0.77 0.18 0.27-0.07 0.54-0.21 0.65-0.34 0.08-0.1 0.2-0.46 0.12-0.91 -0.07-0.49-0.35-0.89-0.8-1.08l-1.62-0.7 0 1.45c0 0.2 0.04 0.4 0.14 0.59C54.77-105.35 54.95-105.24 55.16-105.1z"/>
    </g>
    <g display="inline" opacity="0.1">
      <path fill="#FFFFFF" d="M45.33-114.79c0 0-0.01-0.14-0.08-0.24 -0.04-0.05-0.11-0.09-0.24-0.07 -0.06 0.02-0.16 0.06-0.25 0.18 -0.09 0.11-0.14 0.34-0.1 0.52 0.19 0.56 0.54 0.35 0.6 0.27 0.05-0.05 0.1-0.3 0.16-0.44 0.02-0.03 0.03-0.06 0.04-0.05 -0.08 0.01-0.1 0.02-0.13 0 0.02-0.01 0.07 0.05 0.06 0.02C45.36-114.64 45.34-114.7 45.33-114.79z"/>
    </g>
    <g display="inline" opacity="0.1">
      <path fill="#FFFFFF" d="M-44.5-177.8c0 0 0.69-0.3 2.03-0.67 1.34-0.42 3.32-0.71 5.82-0.76 2.47 0 5.44 0.32 8.48 1.05 1.55 0.37 3.08 0.78 4.65 1.32 1.55 0.47 3.12 1.11 4.67 1.68 0.57 0.23 1.12 0.46 1.66 0.68 0.61 0.26 1.2 0.51 1.77 0.75 0.56 0.25 1.11 0.48 1.63 0.74 0.51 0.28 1 0.55 1.48 0.82 1.91 1.02 3.43 2.23 4.81 3.29 0.68 0.56 1.28 1.16 1.87 1.72 0.58 0.58 1.16 1.08 1.66 1.7 0.5 0.59 1 1.17 1.5 1.76 0.24 0.29 0.5 0.57 0.73 0.88 0.23 0.31 0.46 0.63 0.69 0.94 0.46 0.63 0.94 1.25 1.43 1.89 0.45 0.67 0.92 1.37 1.41 2.1 0.25 0.35 0.51 0.72 0.77 1.09 0.23 0.4 0.47 0.8 0.71 1.22 0.47 0.84 1.08 1.64 1.56 2.62 1.05 1.88 2.14 4.09 3.65 6.51 0.76 1.21 1.61 2.49 2.67 3.73 1.02 1.27 2.33 2.44 3.82 3.46 0 0-0.39-0.25-1.09-0.7 -0.36-0.23-0.81-0.51-1.26-0.92 -0.45-0.41-1.05-0.83-1.56-1.42 -1.11-1.12-2.36-2.57-3.62-4.27 -1.29-1.68-2.61-3.63-4.08-5.46 -2.92-3.61-6.9-6.78-11.4-9.1 -2.25-1.15-4.53-2.2-6.81-3.05 -1.15-0.41-2.25-0.87-3.37-1.18 -0.55-0.18-1.1-0.36-1.64-0.53 -0.61-0.21-1.22-0.42-1.81-0.62 -0.72-0.25-1.42-0.5-2.07-0.77 -0.63-0.28-1.24-0.56-1.83-0.84 -1.19-0.55-2.21-1.13-3.19-1.7 -0.99-0.57-1.87-1.13-2.72-1.68 -0.84-0.55-1.65-1.08-2.45-1.61 -1.59-1.06-3.13-1.99-4.83-2.83 -0.85-0.38-1.74-0.75-2.69-1.09C-42.42-177.36-43.43-177.59-44.5-177.8z"/>
    </g>
    <g display="inline" opacity="0.1">
      <path fill="#FFFFFF" d="M75.38-80.54c0 0-0.06 1.39-0.52 1.47 -0.47 0.09-1.34-1.12-2.97-6.24 -0.95-2.51-1.93-6.05-3.73-10.66 -0.21-0.58-0.43-1.18-0.65-1.8 -0.25-0.61-0.55-1.22-0.83-1.86 -0.57-1.28-1.17-2.64-1.81-4.08 -0.73-1.4-1.56-2.85-2.39-4.41 -0.8-1.57-1.83-3.16-2.88-4.86 -0.52-0.85-1.06-1.72-1.62-2.61 -0.58-0.89-1.17-1.81-1.78-2.74 -1.22-1.87-2.48-3.85-3.78-5.98 -0.65-1.06-1.32-2.14-2-3.25 -0.62-1.18-1.34-2.34-1.91-3.62 -1.26-2.49-2.24-5.24-3.13-8.14 -0.82-2.92-1.41-6.05-1.67-9.33 -0.23-3.29-0.04-6.75 0.72-10.24 0.76-3.48 2.14-6.98 4.25-10.16 2.15-3.15 4.98-5.99 8.39-8.15 0 0 0.15-0.09 0.48-0.3 0.35-0.18 0.89-0.46 1.67-0.87 1.53-0.82 4.09-2 8.15-3.05 2.02-0.55 4.44-0.94 7.27-1.25 2.83-0.25 6.08-0.33 9.77-0.12 3.69 0.22 7.81 0.74 12.34 1.7 2.27 0.46 4.63 1.1 7.08 1.88 2.44 0.81 4.95 1.83 7.5 3.08 2.41 1.24 4.8 2.65 7.09 4.28 2.28 1.63 4.49 3.41 6.6 5.35 2.11 1.94 4.09 4.08 5.78 6.5 1.65 2.41 3.1 5.18 3.38 8.34 0.03 0.39 0.08 0.79 0.08 1.18l-0.08 1.19c-0.04 0.8-0.25 1.58-0.49 2.36 -0.52 1.55-1.49 3-2.72 4.09 -2.51 2.18-5.56 3.04-8.37 3.56 -2.85 0.51-5.63 0.64-8.32 0.68 -2.69 0.03-5.29-0.07-7.79-0.19 -5-0.25-9.64-0.61-13.73-0.66 -2.04-0.03-3.95 0.02-5.63 0.22 -1.68 0.19-3.11 0.57-4.01 1.07 -0.89 0.51-1.2 0.99-1.47 1.78 -0.23 0.8-0.19 1.8-0.15 2.71 0.14 1.83 0.32 3.32 0.01 4.04 -0.28 0.72-0.93 0.1-1.83-1.63 -0.44-0.87-0.94-2.04-1.23-3.61 -0.14-0.78-0.19-1.69 0.02-2.68 0.19-0.98 0.7-2.04 1.51-2.89 1.67-1.7 4.04-2.43 6.4-2.84 2.39-0.4 4.92-0.48 7.55-0.45 5.25 0.08 10.9 0.66 16.69 0.95 2.89 0.14 5.83 0.22 8.7 0.03 2.85-0.19 5.71-0.66 7.95-1.81 2.26-1.12 3.53-3.05 3.73-5.47 0.3-2.35-0.54-4.82-1.74-7.02 -1.21-2.22-2.79-4.23-4.43-6.02 -1.64-1.79-3.36-3.37-5.02-4.78 -3.33-2.85-6.35-4.8-8.76-6.04 -2.39-1.25-5.02-2.45-7.88-3.43 -2.86-0.98-5.92-1.79-9.12-2.43 -6.37-1.32-13.16-1.87-19.54-1.29 -6.36 0.63-12.28 2.55-16.5 5.61 -4.25 3-6.9 6.78-8.21 9.62 -0.7 1.42-1.41 3.41-2.01 5.86 -0.48 2.48-0.8 5.44-0.61 8.74 0.36 6.59 2.77 14.47 7.32 21.71 4.6 7.46 10.47 15.16 14.39 23.85C72.75-97.05 74.47-88.15 75.38-80.54z"/>
    </g>
    <g display="inline" opacity="0.1">
      <path fill="#FFFFFF" d="M-215.9-204.17c0 0-0.16 0.13-0.5 0.33 -0.33 0.18-0.89 0.52-1.64 0.65 -1.5 0.37-3.92 0.15-6.51-1.08 -2.58-1.21-5.21-3.34-7.23-6.07 -2.03-2.72-3.49-6.03-3.91-9.62 -0.15-1.28-0.23-2.48-0.25-3.57 -0.02-1.09 0-2.22 0.09-3.18 0.16-1.96 0.5-3.61 0.87-5.11 0.74-2.98 1.72-5.47 2.06-8.29 0.18-1.41 0.17-2.89-0.18-4.48 -0.37-1.57-1-3.32-2.39-4.91 -1.37-1.56-3.25-3.04-5.69-4.16 -1.23-0.54-2.56-1.06-4.06-1.38 -1.47-0.36-3.13-0.48-4.73-0.31 0 0 0.42-0.08 1.18-0.22 0.2-0.03 0.43-0.07 0.67-0.11 0.25-0.02 0.51-0.02 0.81-0.03 0.58 0.01 1.29-0.07 2.03 0.03 1.52 0.12 3.36 0.38 5.39 0.97 0.51 0.15 1.04 0.31 1.58 0.47 0.53 0.21 1.07 0.42 1.63 0.64 0.28 0.12 0.56 0.23 0.85 0.35 0.28 0.15 0.56 0.29 0.85 0.44 0.57 0.33 1.17 0.56 1.76 1.02 0.58 0.42 1.23 0.87 1.79 1.35 0.52 0.48 1.11 0.96 1.6 1.51 1.04 1.07 1.99 2.27 2.84 3.53 1.73 2.54 2.98 5.34 3.98 8.03 0.99 2.7 1.69 5.29 2.29 7.63 0.28 1.13 0.55 2.24 0.81 3.32 0.26 1.12 0.48 2.17 0.67 3.18 0.92 4.73 0.53 8.19 0.51 11.44 -0.03 1.64 0.09 3.14 0.51 4.56C-217.84-205.82-216.97-204.58-215.9-204.17z"/>
    </g>
    <g display="inline" opacity="0.1">
      <path fill="#FFFFFF" d="M-242.07-218.89c0 0-0.3 0.49-1.13 1.18 -0.41 0.31-0.96 0.62-1.68 0.89 -0.69 0.21-1.59 0.4-2.54 0.35 -1.94-0.04-4.22-0.87-6.11-2.23 -1.9-1.34-3.45-3.16-4.4-5.04 -0.69-1.36-1.13-2.46-1.44-3.31 -0.4-0.94-0.83-1.92-1.12-2.85 -0.69-1.78-1.16-3.55-2.11-5.18 -0.23-0.41-0.47-0.86-0.77-1.26 -0.31-0.39-0.64-0.77-1.02-1.17 -0.38-0.38-0.78-0.81-1.27-1.15 -0.49-0.34-1.03-0.67-1.62-1.01 -2.38-1.25-5.81-2.16-10.4-1.76 0 0 1.14-0.21 3.13-0.47 0.99-0.11 2.18-0.13 3.56-0.17 0.68 0.01 1.4 0.08 2.17 0.14 0.77 0.06 1.57 0.12 2.38 0.31 3.32 0.51 6.99 2 10.21 4.14 1.66 1.04 3.06 2.31 4.42 3.58 1.49 1.5 2.53 3.03 3.32 4.32 1.85 3.08 2.16 5.22 2.78 7.14 0.31 0.9 0.66 1.78 1.24 2.44C-243.9-219.38-243.08-218.91-242.07-218.89z"/>
    </g>
    <g display="inline" opacity="0.1">
      <path fill="#FFFFFF" d="M-205.68-180.63c0 0-0.42 0.71-1.41 1.75 -0.99 1.02-2.62 2.26-5.01 3.06 -2.35 0.76-5.45 0.9-8.45 0.15 -3-0.73-5.81-2.23-7.93-4.15 -1.53-1.4-2.64-2.56-3.59-3.68 -0.47-0.51-0.9-1.1-1.3-1.57 -0.4-0.5-0.76-1.01-1.21-1.5 -0.85-0.99-1.6-2.02-2.37-3 -0.79-0.93-1.59-1.87-2.5-2.79 -0.91-0.88-1.96-1.66-3.18-2.45 -1.23-0.76-2.7-1.29-4.42-1.82 -1.74-0.43-3.76-0.66-6.1-0.54 -1.17 0.07-2.42 0.23-3.71 0.6 -0.64 0.17-1.29 0.43-1.89 0.77 -0.58 0.35-1.14 0.81-1.31 1.32 0 0 0.02-0.07 0.07-0.2 0.03-0.07 0.06-0.16 0.09-0.27 0.07-0.1 0.15-0.21 0.24-0.34 0.39-0.52 1.26-1.19 2.5-1.75 2.49-1.13 6.18-2.04 10.56-2.37 4.37-0.25 9.43 0.19 14.23 1.5 1.18 0.36 2.36 0.73 3.53 1.13 1.19 0.45 2.46 1.01 3.55 1.59 2.23 1.16 4.17 2.47 5.73 3.68 3.69 2.89 5.1 5.34 6.85 7.43 0.86 1.01 1.78 1.96 2.94 2.59C-208.65-180.8-207.25-180.53-205.68-180.63z"/>
    </g>
    <g display="inline" opacity="0.1">
      <path fill="#FFFFFF" d="M-186.83-177.08c0 0-0.92-0.2-2.33-0.55 -1.43-0.33-3.34-0.72-5.46-1.43 -2.11-0.73-4.49-1.75-6.69-3.97 -1.09-1.14-2.11-2.59-2.82-4.21 -0.35-0.81-0.67-1.66-0.86-2.51 -0.23-0.87-0.34-1.73-0.41-2.62 -0.26-4.98 0.85-8.07 1.76-10.33 0.94-2.38 1.99-4.46 2.64-6.83 0.63-2.35 0.95-5.06-0.12-8.4 -0.59-1.63-1.52-3.44-3.13-5.1 -1.6-1.63-3.96-3.03-6.79-3.42 0 0 0.37 0.03 1.03 0.09 0.33 0.05 0.78 0.05 1.26 0.17 0.49 0.13 1.05 0.28 1.67 0.45 0.6 0.23 1.26 0.53 2 0.87 0.66 0.42 1.45 0.83 2.17 1.41 1.5 1.11 2.93 2.64 4.28 4.43 1.29 1.81 2.44 3.87 3.4 6.07 0.94 2.2 1.68 4.51 2.23 6.85 0.28 1.17 0.5 2.33 0.69 3.49 0.08 0.58 0.16 1.16 0.23 1.73 0.06 0.52 0.12 1.04 0.19 1.55 0.21 1.79 0.41 3.51 0.59 5.12 0.21 1.7 0.25 2.98 0.31 4.21 -0.02 0.63 0.08 1.24 0.1 1.89 0.11 0.67 0.14 1.34 0.31 2.05 0.24 1.39 0.66 2.86 1.24 4.31C-188.77-180.27-187.96-178.81-186.83-177.08z"/>
    </g>
    <g display="inline" opacity="0.1">
      <path fill="#FFFFFF" d="M-167-166.96c0 0-0.86 0.07-2.31-0.05 -0.72-0.07-1.63-0.16-2.58-0.4 -0.95-0.25-2.01-0.6-3.14-1.1 -1.1-0.52-2.2-1.23-3.36-2.08 -1.06-0.9-2.15-1.98-3.07-3.27 -1.83-2.57-3.04-5.93-3.07-9.48 0.01-1.26 0.13-2.41 0.24-3.5 0.13-1.06 0.39-1.9 0.61-2.77 0.47-1.69 1.02-3.17 1.62-4.5 0.61-1.34 1.21-2.54 1.89-3.7 0.7-1.15 1.4-2.27 2.05-3.43 1.31-2.34 2.42-4.83 3.1-8.37 0.3-1.77 0.38-3.88-0.17-6.22 -0.54-2.33-1.98-4.8-4.34-6.65 0 0 0.31 0.22 0.88 0.63 0.28 0.21 0.66 0.47 1.06 0.8 0.37 0.38 0.8 0.81 1.26 1.28 0.48 0.5 0.86 1.14 1.36 1.83 0.44 0.71 0.83 1.53 1.23 2.42 0.7 1.79 1.24 3.93 1.54 6.11 0.27 2.07 0.55 4.27 0.83 6.52 0.27 2.17 0.47 4.37 0.68 6.55 0.29 2.18 0.52 4.34 0.65 6.41 0.07 1.02 0.09 2.09 0.14 3.02 0.09 0.86 0.12 1.71 0.15 2.51 0.27 3.7-0.22 6.37-0.19 9.21C-169.9-172.41-169.42-169.49-167-166.96z"/>
    </g>
    <path display="inline" opacity="0.1" fill="#FFFFFF" enable-background="new    " d="M-21.88-189.78c0 0 7.95-14.79-10.54-20.34 -13.31-3.88-19.23 7.95-19.79 10.17 0 0 5.55-7.21 9.06-3.14S-39.82-185.34-21.88-189.78z"/>
    <path display="inline" opacity="0.1" fill="#FFFFFF" enable-background="new    " d="M18.7-136.76c0 0-4.42-20.3-1.91-40.96 0 0 6.15 27.67 14.93 34.5s7.53 25.75 2.23 25.36C33.95-117.86 19.71-131.03 18.7-136.76z"/>
    <path display="inline" opacity="0.1" fill="#FFFFFF" enable-background="new    " d="M-10.99-199.31c0 0-14.1-3.3-10.54-18.52s24.07-18.04 33.13-8.35c0 0-13.66-8.47-19.26-0.46 -2.52 3.85 1.06 10.1 1.83 11.26 0.77 1.15 3.39 7.69 0.34 14.05C-6.78-199.24-8.23-198.82-10.99-199.31z"/>
    <path display="inline" opacity="0.1" fill="#FFFFFF" enable-background="new    " d="M-0.01-185.44c0 0-8.03-7.94 0.83-16.85 8.86-8.92 23.78-2.55 25.73 7.69 0 0-5.54-11.28-12.7-8.09 -3.32 1.6-3.59 7.3-3.56 8.39s-1 6.6-5.75 9.7C2.78-183.69 1.63-183.99-0.01-185.44z"/>
    <path display="inline" opacity="0.1" fill="#FFFFFF" enable-background="new    " d="M17.92-113.34c0 0 3.57-5.96-4.08-15.94s-19.89-8.64-34.04-8.86c0 0 9.58 0.35 16.27 4.43 3.09 2.02 4.46 6.82 5.62 11.74 0.25 1.07 1.77 5.87 6.08 9.55C11.85-110.02 16.11-112.11 17.92-113.34z"/>
    <path display="inline" opacity="0.1" fill="#FFFFFF" enable-background="new    " d="M-245.14-127.99c0 0-3.72-36.4 30.72-42.31s41.98 10.06 41.98 10.06 3.39 8.96-1.42 15.09c-2.3 2.84-13.99 3.17-19.46-7.43s-18.26-12.48-20.11-12.2C-215.3-164.5-245.14-168-245.14-127.99z"/>
  </g>
  <g id="strokes" display="none">
    <path display="inline" d="M832.93 69.12h64.72C897.64 69.12 857.86 73.65 832.93 69.12z"/>
    <path display="inline" d="M832.93 37.48c0 0 9.49-6.22 22.15-5.75 18.15 0.68 16.71 6.2 42.57 3.55 0 0-25.81 4.34-42.45 4.33C845.39 39.61 841.02 37.17 832.93 37.48z"/>
    <path display="inline" d="M832.93 0.44c0 0 9.29-12.51 21.95-12.04 18.15 0.68 16.91 12.49 42.76 9.85 0 0-17.42 5.9-38.77 4.87C848.29 2.61 843.92-1.24 832.93 0.44z"/>
  </g>
</svg>
