<svg xmlns="http://www.w3.org/2000/svg" xmlns:xlink="http://www.w3.org/1999/xlink" version="1.1" id="Layer_1" x="0" y="0" width="410.63" height="230.31" viewBox="0 0 410.63 230.31" enable-background="new 0 0 410.628 230.314" xml:space="preserve">
  <g id="Image" display="none">
    <image display="inline" overflow="visible" opacity="0.5" enable-background="new    " width="1079" height="1302" xlink:href="../../../../../../Downloads/IMG_5220.JPG" transform="matrix(3.697106e-11 -0.8235 0.8235 3.697106e-11 -30.3992 797.6395)"/>
  </g>
  <g id="grpahic1" display="none">
    <g display="inline" opacity="0.1">
      <path fill="#FFFFFF" d="M349.59 306.92c0 0 0.15 0.08 0.41 0.26 0.25 0.18 0.65 0.46 1.05 0.9 0.8 0.86 1.73 2.43 2.09 4.56 0.38 2.11 0.21 4.67-0.44 7.08 -0.65 2.42-1.72 4.66-2.94 6.36 -0.4 0.56-0.77 1.08-1.12 1.57 -0.33 0.55-0.75 1.01-1.08 1.52 -0.71 0.97-1.41 1.9-2.15 2.79 -1.44 1.8-2.94 3.51-4.39 5.43 -1.47 1.93-2.8 4.14-4.2 6.83 -0.73 1.33-1.43 2.8-2.37 4.36 -0.95 1.56-2.06 3.25-3.67 5.12 0 0 0.38-0.77 1.05-2.13 0.58-1.38 1.28-3.28 1.66-5.67 0.41-2.41 0.51-5.3 0.76-9.14 0.14-1.89 0.35-4.03 0.84-6.34 0.21-1.14 0.57-2.36 0.94-3.57 0.45-1.22 0.89-2.45 1.53-3.67 0.55-1.17 1.35-2.4 2.06-3.27 0.72-0.91 1.43-1.64 2.11-2.29 1.36-1.29 2.62-2.26 3.78-3.25 1.15-0.99 2.21-2.01 3.02-3.26C349.31 309.86 349.82 308.36 349.59 306.92z"/>
    </g>
    <g display="inline" opacity="0.1">
      <path fill="#FFFFFF" d="M321.75 338.64c0 0 0.48 0.36 1.17 1.1 0.34 0.38 0.75 0.86 1.16 1.45 0.36 0.59 0.74 1.27 1.08 2.07 0.68 1.56 1.14 3.5 1.27 5.45 0.05 1.01 0.07 1.93-0.04 2.9 -0.07 0.94-0.26 1.85-0.51 2.72 -0.15 0.61-0.36 1.17-0.54 1.69 -0.13 0.5-0.3 0.96-0.48 1.41 -0.33 0.92-0.59 1.81-1.01 2.65 -0.33 0.86-0.65 1.71-1.02 2.57 -0.38 0.86-0.64 1.74-0.94 2.67 -0.58 1.87-0.92 3.96-0.79 6.56 0.07 1.31 0.24 2.73 0.55 4.33 0.14 0.8 0.31 1.64 0.53 2.54 0.16 0.89 0.36 1.84 0.61 2.86 0 0-0.34-0.68-0.86-1.86 -0.24-0.59-0.59-1.31-0.99-2.15 -0.39-0.85-0.84-1.8-1.32-2.85 -0.96-2.12-2.13-4.74-3.08-7.96 -0.97-3.17-1.62-7.26-0.88-11.69 0.39-2.15 1.08-3.78 1.77-5.14 0.34-0.71 0.7-1.3 1.06-1.89 0.35-0.58 0.69-1.14 1.03-1.71 0.68-1.11 1.25-2.2 1.72-3.47 0.2-0.62 0.35-1.28 0.49-1.99C321.79 340.17 321.77 339.43 321.75 338.64z"/>
    </g>
    <g display="inline" opacity="0.1">
      <path fill="#FFFFFF" d="M301.32 363.87c0 0 0.67 0.4 1.67 1.28 1.03 0.89 2.27 2.29 3.24 4.35 1 2.05 1.51 4.7 1.6 7.3 0.03 0.63 0.02 1.27-0.01 1.91 -0.01 0.61-0.05 1.21-0.13 1.82 -0.09 0.61-0.13 1.17-0.27 1.76 -0.06 0.28-0.14 0.59-0.2 0.86 -0.05 0.26-0.11 0.51-0.18 0.77 -0.84 2.91-1.55 5.02-2.32 7.18 -0.78 2.15-1.43 4.28-1.75 6.77 -0.29 2.49-0.02 5.31 1.46 8.54 0.74 1.62 1.83 3.28 3.29 5.03 1.5 1.7 3.38 3.46 5.76 5.17 0 0-0.94-0.41-2.58-1.28 -1.62-0.91-3.95-2.29-6.56-4.49 -2.59-2.21-5.52-5.3-7.81-9.66 -2.32-4.28-3.68-10.16-2.81-16 0.24-1.44 0.52-2.75 0.97-3.91 0.21-0.58 0.42-1.16 0.64-1.68 0.24-0.48 0.48-0.95 0.71-1.41 0.94-1.82 1.96-3.28 2.86-4.7 0.45-0.71 0.85-1.37 1.25-2.09 0.32-0.68 0.73-1.42 0.92-2.18C301.59 367.67 301.65 365.91 301.32 363.87z"/>
    </g>
    <g display="inline" opacity="0.1">
      <path fill="#FFFFFF" d="M312.95 336.66c0 0 0.22 0.42 0.53 1.09 0.31 0.68 0.7 1.59 1.09 2.67 0.38 1.06 0.7 2.32 0.68 3.74 -0.02 0.36-0.05 0.74-0.11 1.12 -0.07 0.39-0.1 0.73-0.28 1.2 -0.32 0.86-0.72 1.57-1.22 2.22 -1.45 1.84-2.84 2.77-4.17 3.41 -1.33 0.63-2.61 0.93-3.93 1.26 -1.32 0.32-2.68 0.71-4.26 1.28 -0.79 0.28-1.65 0.61-2.55 0.84 -0.45 0.1-0.91 0.2-1.33 0.18 -0.42-0.02-0.79-0.1-1.19-0.38 0-0.02 0.38 0.15 0.87 0.04 0.47-0.09 1.21-0.46 2.24-1.27 2.05-1.61 4.85-4.75 7.88-8.03 0.74-0.82 1.41-1.47 1.98-2.03l0.39-0.38 0.18-0.17 0.18-0.23c0.25-0.32 0.49-0.63 0.73-0.93 0.47-0.68 0.88-1.41 1.26-2.32 0.19-0.46 0.35-0.94 0.53-1.49C312.61 337.93 312.79 337.33 312.95 336.66z"/>
    </g>
    <g display="inline" opacity="0.1">
      <path fill="#FFFFFF" d="M345.91 305.36c0 0-0.2 0.02-0.57 0.05 -0.37 0.03-0.98 0.03-1.75 0.21 -0.19 0.05-0.39 0.11-0.6 0.17 -0.23 0.07-0.48 0.16-0.71 0.25 -0.47 0.18-0.86 0.47-1.25 0.76 -0.76 0.6-1.44 1.36-2.14 2.13 -2.76 3.16-6.02 7.02-11.05 8.79 -1.79 0.64-3.4 1.08-4.86 1.37 -0.72 0.14-1.43 0.26-2.04 0.32 -0.31 0.03-0.58 0.05-0.72-0.01 -0.27 0.03-0.55 0.05-0.84 0.09 -2.34 0.33-4.74 0.63-7.2 1.24 -2.45 0.65-5.08 1.64-7.76 4.11 -0.66 0.62-1.32 1.35-1.94 2.22 -0.62 0.87-1.21 1.89-1.67 3.14 -0.44 1.24-0.77 2.76-0.54 4.52 0.23 1.76 1.26 3.62 2.73 4.79 0 0-0.28-0.17-0.8-0.54 -0.51-0.39-1.27-1.06-1.96-2.25 -0.7-1.17-1.19-2.88-1.19-4.7 -0.01-1.82 0.37-3.72 1.03-5.57 1.34-3.7 3.67-7.32 6.77-10.72 1.56-1.7 3.3-3.33 5.41-4.9 0.54-0.39 1.09-0.78 1.73-1.18 0.23-0.15 0.87-0.52 1.13-0.65 0.36-0.19 0.63-0.32 0.95-0.47 1.18-0.56 2.32-1.03 3.49-1.48 4.63-1.74 8.22-2.03 11.85-2.41 1.82-0.18 3.63-0.38 5.75-0.66 1.09-0.12 2.21-0.29 3.73-0.32 0.36-0.02 0.81 0.01 1.28 0.06 0.42 0.03 1.15 0.19 1.58 0.33 0.43 0.14 0.84 0.33 1.24 0.55 0.17 0.13 0.35 0.25 0.52 0.38L345.91 305.36z"/>
    </g>
    <g display="inline" opacity="0.1">
      <path fill="#FFFFFF" d="M346.22 260.67c0 0 0.04 0.38 0.11 1.08 0.08 0.71 0.2 1.76 0.34 3.09 0.15 1.36 0.36 3.02 0.5 5.01 0.17 1.97 0.23 4.29 0.01 6.86 -0.11 1.32-0.3 2.59-0.53 3.86 -0.23 1.24-0.47 2.53-0.72 3.85 -0.47 2.56-0.84 5.11-0.63 7.52 0.18 2.41 1.08 4.72 2.51 6.86 1.43 2.09 3.42 3.75 5.81 4.9 4.81 2.32 10.83 2.61 16.34 2.25 1.39-0.09 2.76-0.21 4.11-0.38 0.67-0.08 1.34-0.16 2-0.26 0.67-0.09 1.29-0.19 2.02-0.27 1.42-0.17 2.79-0.35 4.15-0.38 0.68-0.02 1.34-0.08 2-0.06 0.66 0.02 1.3 0.04 1.93 0.06 5.07 0.22 9.11 1.38 11.8 2.2 1.38 0.39 2.39 0.78 3.11 1.01 0.71 0.24 1.09 0.37 1.09 0.37s-0.99-0.12-2.81-0.35c-1.82-0.21-4.47-0.54-7.77-0.61 -3.29-0.09-7.2 0.21-11.31 1.21 -2.04 0.49-4.22 1.14-6.56 1.66 -2.34 0.5-4.81 0.94-7.42 1.15 -2.61 0.2-5.36 0.21-8.2-0.16 -2.83-0.37-5.78-1.22-8.55-2.73 -2.77-1.5-5.27-3.78-7.03-6.51l-1.2-2.11c-0.32-0.75-0.68-1.48-0.91-2.27 -0.53-1.55-0.82-3.19-0.89-4.79 -0.17-3.23 0.52-6.21 1.31-8.9 0.79-2.69 1.77-5.21 2.44-7.73C344.58 271.02 344.89 265.43 346.22 260.67z"/>
    </g>
  </g>
  <g id="gaphic2" opacity="0.5">
    <g opacity="0.3">
      <path fill="#FFFFFF" d="M275 167.46c0 0 0.88 1.67 2.42 4.6 0.73 1.48 1.54 3.3 2.51 5.38 0.87 2.1 1.91 4.47 2.93 7.06 2.1 5.17 4.33 11.24 7.29 17.4 1.53 3.05 3.08 6.24 5.11 9.02 2.02 2.82 4.49 5.39 7.28 7.56 5.58 4.36 12.38 7.06 18.96 8.45 6.6 1.43 13 1.57 18.46 1.47 1.37-0.04 2.68-0.07 3.93-0.11 1.25-0.05 2.44-0.16 3.56-0.23 2.23-0.16 4.18-0.29 5.79-0.46 3.22-0.3 5.06-0.47 5.06-0.47s-1.12 0.23-3.17 0.64c-1.02 0.2-2.28 0.44-3.75 0.72 -1.47 0.24-3.15 0.51-5.01 0.81 -1.86 0.33-3.92 0.52-6.15 0.76 -1.11 0.1-2.27 0.27-3.47 0.32 -1.2 0.04-2.44 0.08-3.71 0.12 -5.1 0.21-10.83-0.22-16.78-1.71 -2.96-0.76-5.98-1.78-8.92-3.18 -2.93-1.42-5.79-3.2-8.41-5.37 -2.62-2.16-5-4.71-6.95-7.58 -1.99-2.87-3.43-5.94-4.87-8.98 -2.77-6.15-4.72-12.48-6.58-18.58C278.68 178.98 276.93 173.08 275 167.46z"/>
    </g>
    <g opacity="0.3">
      <path fill="#FFFFFF" d="M274.7 167.33c0 0 0.26 0.28 0.74 0.81 0.25 0.26 0.53 0.6 0.89 0.97 0.4 0.33 0.86 0.72 1.38 1.14 1.07 0.82 2.48 1.68 4.21 2.5 0.88 0.38 1.84 0.76 2.87 1.11 1.05 0.31 2.14 0.68 3.34 0.93 4.73 1.17 10.51 1.64 16.81 2.31 3.13 0.35 6.49 0.78 9.76 1.62 3.27 0.77 6.54 1.73 9.76 2.82 12.89 4.36 25.08 11.18 32.01 19.31 3.36 4.07 5.3 8.05 6.4 10.9 0.26 0.72 0.53 1.35 0.71 1.92 0.17 0.57 0.31 1.06 0.43 1.45 0.23 0.79 0.35 1.21 0.35 1.21s-0.41-1-1.15-2.83c-0.87-1.76-2.06-4.35-4.14-7.16 -2.03-2.82-4.82-5.94-8.49-8.65 -3.76-2.62-8.07-5.24-12.93-7.49 -4.86-2.24-10.14-4.28-15.67-6.02 -1.39-0.41-2.79-0.81-4.19-1.23 -1.41-0.39-2.84-0.72-4.27-1.09 -2.83-0.72-5.7-1.15-8.66-1.57 -5.89-0.83-11.95-1.55-17.5-3.45 -2.75-0.96-5.4-2.13-7.6-3.77C277.56 171.43 275.83 169.43 274.7 167.33z"/>
    </g>
    <g opacity="0.3">
      <path fill="#FFFFFF" d="M362.35 205.78c0 0-0.17-0.27-0.49-0.79 -0.16-0.26-0.36-0.57-0.59-0.95 -0.2-0.39-0.44-0.83-0.7-1.33 -1.01-2-2.22-4.97-3.01-8.7 -0.8-3.71-1.18-8.22-0.38-12.98 0.38-2.38 1.18-4.81 2.45-7.07 0.16-0.28 0.31-0.57 0.48-0.85l0.58-0.8 0.58-0.8c0.2-0.26 0.43-0.47 0.64-0.71l1.3-1.41c0.45-0.46 0.95-0.86 1.42-1.29 3.83-3.44 8.44-5.66 12.65-7.59 4.24-1.88 8.17-3.53 11.32-5.29 3.16-1.74 5.52-3.54 7.04-4.94 0.78-0.68 1.29-1.31 1.69-1.69 0.38-0.4 0.59-0.61 0.59-0.61s-0.45 0.58-1.26 1.64c-0.39 0.56-0.98 1.13-1.65 1.83 -0.64 0.73-1.51 1.43-2.44 2.25 -1.92 1.57-4.42 3.26-7.39 4.88 -2.96 1.64-6.36 3.23-9.82 5.1 -3.46 1.87-6.96 4.07-9.94 6.95 -0.76 0.7-1.41 1.52-2.13 2.27 -0.6 0.81-1.23 1.59-1.68 2.52 -0.97 1.79-1.7 3.77-2.1 5.84 -0.43 2.06-0.68 4.18-0.69 6.31 -0.06 1.06 0.03 2.12 0.04 3.18 0.1 1.05 0.13 2.11 0.3 3.15C359.66 198.08 360.71 202.08 362.35 205.78z"/>
    </g>
    <g opacity="0.3">
      <path fill="#FFFFFF" d="M385.99 209.87c0 0 0.02-0.02 0.06-0.03 0.04-0.01 0.1-0.01 0.22-0.12 0.23-0.13 0.64-0.55 1.07-1.23 0.88-1.36 1.86-3.66 2.85-6.51 0.13-0.36 0.26-0.73 0.39-1.11 0.12-0.36 0.23-0.72 0.35-1.09 0.21-0.75 0.41-1.53 0.54-2.37 0.3-1.65 0.44-3.45 0.56-5.34 0.06-0.95 0.13-1.92 0.19-2.9 0.02-0.47 0.04-0.94 0.06-1.41 -0.01-0.48-0.02-0.96-0.03-1.44 -0.08-1.93-0.36-3.9-0.7-5.88 -0.68-3.95-1.66-7.97-1.77-11.92 -0.06-1.97 0.09-3.9 0.47-5.7 0.24-0.87 0.43-1.73 0.7-2.54 0.29-0.79 0.51-1.59 0.83-2.3 1.18-2.91 2.52-5.16 3.58-6.68 0.57-0.74 0.99-1.33 1.38-1.71 0.36-0.38 0.55-0.58 0.55-0.58s-0.11 0.14-0.31 0.4c-0.2 0.26-0.52 0.64-0.82 1.15 -0.68 1-1.45 2.52-2.3 4.43 -1.58 3.84-3.44 9.57-2.2 15.96 0.5 3.19 1.38 6.53 2.02 10.08 0.32 1.78 0.54 3.62 0.6 5.49 0.04 0.94-0.01 1.88-0.07 2.82l-0.24 2.71c-0.17 1.81-0.38 3.65-0.78 5.44 -0.19 0.9-0.46 1.78-0.76 2.64 -0.33 0.86-0.68 1.67-1.05 2.46 -0.73 1.59-1.5 3.15-2.41 4.54 -0.46 0.69-0.94 1.36-1.48 1.9C386.97 209.56 386.25 209.99 385.99 209.87z"/>
    </g>
    <path d="M1113.59 216.28c0 0-4.65-2.97 23.43-0.37 0 0 2.42 0.53 12.28-0.03 9.41-0.53 21.46-2.4 22.5-0.43 1.05 1.97-17.45 1.3-22.33 1.47s-12.53-0.17-15.49 0C1131.02 217.09 1120.22 217.84 1113.59 216.28z"/>
    <g opacity="0.3">
      <path fill="#FFFFFF" d="M147.88 133.87c0 0-3.84-2.45 4.67 0.74 2.13 0.79 5.02 1.98 8.95 3.54 3.93 1.57 8.9 3.56 15.35 5.48 1.61 0.47 3.31 1 5.13 1.38 1.81 0.41 3.7 0.92 5.73 1.21 4.01 0.78 8.53 1.22 13.43 1.86 9.82 1.07 21.37 2.13 34.95 2.15 0 0 2.34 0.08 9.45-0.08 3.55-0.08 8.3-0.18 14.53-0.32 6.24-0.08 13.98-0.18 23.49 0.61 4.54 0.32 9.21 1.02 13.92 1.84 4.68 0.97 9.41 2.07 13.94 3.68 1.13 0.4 2.29 0.74 3.39 1.19 1.11 0.45 2.21 0.9 3.31 1.35l1.64 0.67c0.53 0.26 1.06 0.51 1.59 0.77 1.06 0.51 2.1 1.02 3.14 1.53 4.19 2.05 7.87 4.78 11.05 7.6 6.37 5.69 10.72 11.86 13.57 16.64 2.83 4.82 4.16 8.31 4.17 9.43 0 0.56-0.48 0.04-1.35-1.32 -0.87-1.36-2.15-3.54-3.89-6.23 -1.73-2.69-3.93-5.88-6.64-9.2 -2.7-3.32-5.93-6.76-9.7-9.82 -0.92-0.8-1.93-1.48-2.91-2.23 -1.03-0.67-2.02-1.4-3.11-2 -1.04-0.65-2.16-1.22-3.28-1.78 -1.11-0.57-2.23-1.14-3.34-1.71 -4.55-2.03-9.11-3.91-13.55-5.16 -8.82-2.67-16.75-3.69-21.4-4.13 -18.66-2.03-48.29 0.12-59.82-0.27 -1.44-0.04-3.35-0.08-5.64-0.14 -2.29-0.08-4.98-0.08-7.95-0.32 -2.96-0.22-6.23-0.38-9.68-0.71 -1.72-0.18-3.5-0.36-5.31-0.55 -0.91-0.1-1.82-0.19-2.75-0.29 -0.92-0.09-1.86-0.2-2.8-0.36 -7.59-0.98-15.44-3.19-22.65-6.05C160.29 140.02 153.63 136.73 147.88 133.87z"/>
    </g>
    <g opacity="0.3">
      <path fill="#FFFFFF" d="M263.32 56.1c0 0-0.49-0.72-0.33-0.9 0.16-0.17 1 0.2 3.68 2.49 0.63 0.62 1.36 1.36 2.22 2.25 0.88 0.87 1.72 2.04 2.78 3.31 1.97 2.64 4.29 6.15 6.53 10.9 2.27 4.74 4.41 10.68 6.77 17.86 1.19 3.59 2.46 7.48 3.99 11.65 1.53 4.17 3.35 8.61 5.83 13.16 0 0 0.21 0.4 0.73 1.4 0.26 0.5 0.66 1.11 1.15 1.91 0.51 0.78 1.06 1.77 1.86 2.87 3.06 4.47 8.68 11.72 19.44 21.54 5.12 4.7 10.86 9.42 16.48 14.07 1.41 1.16 2.8 2.32 4.19 3.47 0.68 0.61 1.38 1.2 2.03 1.82 0.64 0.64 1.3 1.25 1.9 1.91 2.44 2.6 4.51 5.38 6.25 8.12 0.87 1.38 1.65 2.74 2.37 4.08 0.33 0.71 0.66 1.4 0.97 2.08 0.29 0.69 0.51 1.38 0.76 2.04 0.89 2.68 1.41 5.12 1.83 7.16 0.21 1.02 0.4 1.95 0.58 2.79 0.19 0.83 0.35 1.55 0.47 2.19 0.28 1.25 0.44 2.13 0.33 2.58 -0.12 0.91-1.68-1.56-3.02-6.35 -0.68-2.37-1.34-5.27-2.45-8.29 -1.1-2.99-2.92-6.11-4.95-9.21 -2.04-3.09-4.48-6.07-7.22-8.65 -2.77-2.56-5.7-5.05-8.34-7.4 -5.34-4.68-9.86-8.82-12.51-11.28 -5.3-4.9-11.83-11.58-17.03-18.47 -2.59-3.44-4.93-6.87-6.71-10.02 -0.44-0.79-0.91-1.52-1.29-2.26 -0.38-0.74-0.74-1.45-1.09-2.12 -0.71-1.32-1.24-2.53-1.72-3.53 -0.98-1.98-2.42-5.34-4.09-9.57 -1.66-4.23-3.44-9.35-5.47-14.69 -2.03-5.34-4.38-10.88-7.25-15.89C270.11 64.07 266.69 59.62 263.32 56.1z"/>
    </g>
    <g opacity="0.3">
      <path fill="#FFFFFF" d="M372.16 211.78c0 0 0.01-0.27 0.04-0.76 0.02-0.49 0.09-1.19 0.17-2.09 0.2-1.79 0.52-4.34 1.1-7.35 1.13-6.04 3.32-13.95 6.33-21.55 2.96-7.62 6.79-14.87 9.99-20.1 1.53-2.66 3-4.75 3.98-6.24 0.99-1.49 1.56-2.33 1.56-2.33s-1.16 2.26-3.16 5.89c-0.93 1.85-2.05 4.07-3.29 6.56 -1.12 2.55-2.51 5.28-3.73 8.31 -2.58 5.99-5.12 12.8-7.32 19.65 -1.14 3.42-2.12 6.87-3.09 10.22C373.76 205.35 372.89 208.57 372.16 211.78z"/>
    </g>
    <g opacity="0.3">
      <path fill="#FFFFFF" d="M361.09 219.28c0 0-0.11 0.02-0.33 0.06 -0.2 0.03-0.5 0.08-0.89 0.14 -0.77 0.1-1.89 0.24-3.31 0.33 -2.84 0.18-6.91 0.2-11.72-0.4 -4.81-0.58-10.36-1.79-16.06-3.83 -5.69-2.04-11.53-4.84-16.94-8.34 -10.88-6.92-19.98-16.19-25.88-23.73 -0.74-0.94-1.46-1.84-2.14-2.7 -0.64-0.88-1.25-1.72-1.83-2.51 -1.15-1.57-2.14-2.95-2.89-4.13 -1.54-2.33-2.43-3.66-2.43-3.66s0.63 0.76 1.78 2.15c0.57 0.7 1.26 1.55 2.07 2.55 0.84 0.97 1.8 2.08 2.86 3.3 1.04 1.24 2.27 2.54 3.57 3.94 1.27 1.43 2.74 2.87 4.26 4.4 0.38 0.38 0.77 0.77 1.16 1.17 0.41 0.38 0.82 0.76 1.23 1.15 0.83 0.78 1.67 1.57 2.54 2.38 1.81 1.53 3.61 3.2 5.61 4.75 3.94 3.17 8.28 6.28 12.96 9.07 4.68 2.79 9.68 5.27 14.85 7.31 1.28 0.55 2.6 0.96 3.9 1.46 1.32 0.41 2.62 0.9 3.95 1.26 2.64 0.81 5.3 1.46 7.94 2.02 2.65 0.56 5.29 1.01 7.9 1.33 1.31 0.15 2.61 0.3 3.9 0.39C358.47 219.23 359.7 219.31 361.09 219.28z"/>
    </g>
    <g opacity="0.3">
      <path fill="#FFFFFF" d="M363.23 191.84c0 0 0.59 0.8 1.29 2.1 0.71 1.3 1.49 3.09 2.35 4.83 0.44 0.87 0.92 1.7 1.42 2.45 0.52 0.73 1.04 1.4 1.56 1.89 0.24 0.26 0.5 0.47 0.72 0.66 0.22 0.2 0.42 0.35 0.6 0.46 0.34 0.24 0.54 0.37 0.54 0.37s-0.13-0.07-0.36-0.2c-0.24-0.13-0.59-0.31-0.98-0.61 -0.81-0.56-1.84-1.53-2.74-2.85 -0.92-1.3-1.69-2.91-2.38-4.51C364.54 194.82 363.89 193.24 363.23 191.84z"/>
    </g>
    <g opacity="0.3">
      <path fill="#FFFFFF" d="M365.14 183.02c0 0 0.01 0.06 0.02 0.17 0.02 0.11 0 0.26 0.06 0.47 0.11 0.41 0.38 0.99 0.69 1.74 0.55 1.47 1.26 3.45 2.17 5.32 0.88 1.89 1.77 3.82 2.61 5.1 0.44 0.63 0.87 1.1 1.2 1.38 0.35 0.26 0.54 0.41 0.54 0.41 0.02-0.03-0.57-0.23-1.34-0.98 -0.76-0.74-1.59-2.02-2.37-3.52 -0.2-0.37-0.41-0.75-0.62-1.14 -0.19-0.41-0.39-0.82-0.59-1.24 -0.37-0.85-0.82-1.69-1.1-2.59 -0.31-0.89-0.59-1.78-0.83-2.65C365.34 184.63 364.95 183.73 365.14 183.02z"/>
    </g>
    <g opacity="0.3">
      <path fill="#FFFFFF" d="M369.09 179.21c0 0 0.35 0.89 0.81 2.24 0.46 1.36 1 3.17 1.64 4.95 0.66 1.76 1.49 3.46 2.31 4.6 0.37 0.6 0.81 0.99 1.05 1.32 0.26 0.31 0.42 0.49 0.42 0.49s-0.43-0.41-1.1-1.07c-0.66-0.7-1.48-1.79-2.2-3.16C370.56 185.82 369.69 182.12 369.09 179.21z"/>
    </g>
    <g opacity="0.3">
      <path fill="#FFFFFF" d="M373.52 170.9c0 0 0 0.24 0 0.65 0.02 0.41-0.03 1 0.03 1.7 0.05 1.41 0.32 3.27 0.76 5.09 0.51 1.8 1.21 3.55 1.96 4.74 0.16 0.31 0.33 0.58 0.51 0.8 0.17 0.23 0.31 0.43 0.44 0.59 0.24 0.33 0.38 0.52 0.38 0.52s-0.39-0.44-1.02-1.14c-0.6-0.75-1.34-1.89-1.96-3.31C373.35 177.72 372.89 173.78 373.52 170.9z"/>
    </g>
    <g opacity="0.3">
      <path fill="#FFFFFF" d="M379.19 164.49c0 0 0 0.8 0.01 2 0.02 1.2 0.1 2.79 0.37 4.35 0.3 1.56 0.87 3.04 1.42 4.09 0.26 0.53 0.56 0.93 0.73 1.23 0.18 0.29 0.29 0.46 0.29 0.46s-0.31-0.4-0.79-1.03c-0.26-0.32-0.49-0.75-0.76-1.23 -0.3-0.47-0.51-1.04-0.75-1.65C378.74 170.24 378.72 166.92 379.19 164.49z"/>
    </g>
    <g opacity="0.3">
      <path fill="#FFFFFF" d="M384.24 161.49c0 0 0.05 0.5 0.14 1.25 0.03 0.76 0.32 1.73 0.52 2.71 0.36 0.94 0.62 1.92 1.03 2.56 0.35 0.67 0.58 1.11 0.58 1.11s-0.18-0.28-0.45-0.69c-0.27-0.44-0.69-1.04-0.96-1.81C384.37 165.12 384.1 163.04 384.24 161.49z"/>
    </g>
    <g opacity="0.3">
      <path fill="#FFFFFF" d="M374.73 205.87c0 0-0.04 0.03-0.11 0.09 -0.07-0.06-0.06-0.1-0.12-0.13 -0.02-0.01-0.05-0.02-0.08-0.01 0.01 0 0.03-0.02 0.01-0.03 -0.02-0.02 0-0.14-0.03-0.21 0-0.01-0.02 0-0.01 0 0.03-0.01 0.06-0.02 0.09-0.03 0.08-0.04 0.17-0.07 0.27-0.12 0.19-0.08 0.46-0.24 0.78-0.34 0.3-0.11 0.63-0.24 1-0.37 1.46-0.55 3.42-1.26 5.34-2.04 1.93-0.77 3.77-1.71 5.06-2.57 0.63-0.45 1.15-0.82 1.47-1.13 0.34-0.29 0.53-0.46 0.53-0.46s-0.11 0.12-0.3 0.33c-0.21 0.2-0.46 0.54-0.88 0.87 -0.78 0.72-2.01 1.58-3.5 2.38 -1.49 0.8-3.25 1.53-5.01 2.13 -0.88 0.3-1.77 0.58-2.64 0.82 -0.42 0.11-0.85 0.22-1.28 0.33l-0.61 0.19c-0.1 0.03-0.2 0.06-0.28 0.07 -0.01 0-0.02 0-0.01 0 0-0.02 0.01 0.04 0.01 0.1 -0.01 0.08 0.03 0.07 0.01 0.1 0.01-0.01 0.15 0.04 0.16 0.13l0.02-0.01L374.73 205.87z"/>
    </g>
    <g opacity="0.3">
      <path fill="#FFFFFF" d="M375.74 198.85c0-0.02 0.23 0.04 0.65-0.03 0.42-0.06 1.02-0.23 1.71-0.56 1.4-0.62 3.05-1.87 4.87-2.93 1.82-1.02 3.63-2.02 4.91-2.87 0.66-0.4 1.13-0.84 1.49-1.1 0.35-0.27 0.56-0.43 0.56-0.43s-0.47 0.44-1.23 1.15c-0.79 0.7-2 1.57-3.43 2.45 -0.71 0.45-1.47 0.9-2.26 1.36 -0.77 0.48-1.55 0.97-2.34 1.47 -0.8 0.48-1.63 0.92-2.48 1.22C377.36 198.89 376.45 199.05 375.74 198.85z"/>
    </g>
    <g opacity="0.3">
      <path fill="#FFFFFF" d="M377.31 192.59c0.04-0.01-0.2 0.15-0.31 0.13l-0.03 0.01 0 0 -0.02-0.09c-0.01-0.04-0.01-0.06-0.02-0.09 -0.02-0.07-0.04-0.03 0-0.06 0.02-0.01 0.03-0.03 0.05-0.06 0.03-0.04 0.06-0.07 0.08-0.11 0 0 0 0 0.01 0l0 0c0.06-0.01 0.13-0.02 0.21-0.03 0.21-0.04 0.47-0.06 0.76-0.14 0.29-0.09 0.62-0.18 0.97-0.31 1.42-0.53 3.16-1.59 4.93-2.65 3.6-1.99 7.19-3.97 7.19-3.97s-2.07 1.47-4.9 3.19c-0.72 0.43-1.47 0.88-2.23 1.34 -0.77 0.47-1.56 0.95-2.38 1.37 -0.81 0.44-1.68 0.79-2.53 1.05 -0.44 0.1-0.86 0.21-1.28 0.23l-0.62 0.01c-0.05 0-0.11 0-0.12 0 -0.01 0-0.01-0.01-0.02-0.02 0 0 0 0 0-0.01 0 0 0-0.01 0-0.01l0 0 -0.05 0.07c-0.02 0.04-0.04 0.06-0.07 0.07 -0.02 0.01 0 0 0.01 0.03 0.03 0.05 0.02 0.06 0.05 0.15 0.01 0.03 0.01 0.01 0.01 0.02l0.08 0C377.08 192.69 377.22 192.68 377.31 192.59z"/>
    </g>
    <g opacity="0.3">
      <path fill="#FFFFFF" d="M379.54 185.8c0 0 0.18-0.04 0.5-0.1 0.32-0.08 0.77-0.25 1.27-0.55 1.04-0.55 2.26-1.56 3.6-2.45 2.74-1.64 5.35-3.41 5.35-3.41s-0.39 0.32-1.01 0.82c-0.64 0.5-1.53 1.21-2.6 1.92 -0.54 0.36-1.11 0.73-1.68 1.11 -0.57 0.4-1.14 0.81-1.73 1.22C382.09 185.13 380.73 185.88 379.54 185.8z"/>
    </g>
    <g opacity="0.3">
      <path fill="#FFFFFF" d="M383.89 176.93c0 0 1.6-1.28 3.29-2.41 0.8-0.61 1.66-1.17 2.19-1.71 0.56-0.51 0.93-0.85 0.93-0.85s-0.22 0.25-0.55 0.61c-0.35 0.38-0.83 0.93-1.49 1.43 -0.63 0.53-1.37 1.07-2.14 1.57C385.34 176.04 384.62 176.56 383.89 176.93z"/>
    </g>
    <g opacity="0.3">
      <path fill="#FFFFFF" d="M386.14 168.7c0 0 0.06 0.01 0.15 0.03 0.1 0 0.25-0.02 0.42-0.1 0.35-0.15 0.76-0.46 1.15-0.79 0.4-0.33 0.78-0.68 1.09-0.92 0.31-0.24 0.55-0.36 0.55-0.36s-0.15 0.09-0.35 0.26c-0.2 0.17-0.47 0.43-0.77 0.71 -0.3 0.28-0.65 0.6-1.04 0.87C386.98 168.64 386.47 168.9 386.14 168.7z"/>
    </g>
    <g opacity="0.3">
      <path fill="#FFFFFF" d="M353.9 217.18c0 0 0.02-0.88 0.05-2.2 0-1.32 0.15-3.07 0.26-4.82 0.11-1.74 0.27-3.49 0.28-4.8 0.04-1.31 0.07-2.18 0.07-2.18s0.04 0.55 0.09 1.43c0.05 0.89 0.12 2.14 0.06 3.56 -0.04 1.42-0.11 3-0.26 4.55C354.29 214.29 354.2 215.82 353.9 217.18z"/>
    </g>
    <g opacity="0.3">
      <path fill="#FFFFFF" d="M347.09 215.23v-12.68C347.09 202.54 347.98 210.34 347.09 215.23z"/>
    </g>
    <g opacity="0.3">
      <path fill="#FFFFFF" d="M335.61 212.3c0 0 0.04-1.18 0.09-2.96 0.02-1.78 0.21-4.13 0.35-6.49 0.1-2.35 0.3-4.71 0.23-6.47 -0.01-1.76-0.02-2.93-0.02-2.93s0.08 0.73 0.2 1.91c0.11 1.2 0.28 2.88 0.23 4.79 0 1.91-0.09 4.05-0.29 6.15C336.19 208.4 336.02 210.48 335.61 212.3z"/>
    </g>
    <g opacity="0.3">
      <path fill="#FFFFFF" d="M326.16 208.48c0 0-0.07-0.32-0.2-0.88 -0.12-0.56-0.26-1.38-0.31-2.36 -0.16-1.97 0.05-4.58 0.42-7.14 0.38-2.56 0.84-5.1 1.08-7.01 0.26-1.91 0.3-3.19 0.3-3.19s0.01 0.2 0.02 0.56c0.02 0.36 0.03 0.89 0.01 1.55 -0.02 1.32-0.17 3.16-0.42 5.23C326.56 199.39 325.77 204.38 326.16 208.48z"/>
    </g>
    <g opacity="0.3">
      <path fill="#FFFFFF" d="M316.8 204.5c0 0 0.11-3.83 0.22-7.65 0.05-3.81 0.11-7.63 0.11-7.63s0.23 2.34 0.32 5.43C317.56 197.75 317.41 201.54 316.8 204.5z"/>
    </g>
    <g opacity="0.3">
      <path fill="#FFFFFF" d="M309.17 198.86c0 0-0.1-0.03-0.23-0.14 -0.11-0.11-0.23-0.28-0.31-0.49 -0.17-0.43-0.28-1.03-0.36-1.74 -0.15-1.43-0.17-3.34-0.14-5.24 0.03-1.9 0.11-3.8 0.16-5.22 0.06-1.42 0.07-2.36 0.07-2.36s0.07 0.58 0.11 1.55c0.05 0.97 0.09 2.32 0.11 3.85 0.02 1.53 0.02 3.24 0 4.93 0 0.83 0 1.66 0 2.5 0.01 0.41 0.02 0.81 0.07 1.2 0.02 0.2 0.06 0.39 0.11 0.59C308.82 198.48 308.87 198.71 309.17 198.86z"/>
    </g>
    <g opacity="0.3">
      <path fill="#FFFFFF" d="M297.68 191.16c0 0 0.02-2.69 0.03-5.37 -0.06-1.34-0.05-2.68-0.19-3.67 -0.1-1-0.17-1.66-0.17-1.66s0.09 0.42 0.22 1.07c0.13 0.67 0.32 1.62 0.37 2.7C298.15 186.4 298.06 189.09 297.68 191.16z"/>
    </g>
    <g opacity="0.3">
      <path fill="#FFFFFF" d="M333.29 226.23c0 0 0.37-0.04 1.02-0.11 0.33-0.02 0.72-0.12 1.17-0.21 0.45-0.08 0.95-0.23 1.5-0.39 2.2-0.61 5.01-1.91 8.04-2.72 1.5-0.39 2.98-0.78 4.35-1.19 1.36-0.44 2.62-0.87 3.63-1.4 0.52-0.23 0.96-0.49 1.35-0.73 0.4-0.22 0.73-0.44 0.99-0.65 0.52-0.39 0.82-0.62 0.82-0.62s-0.17 0.16-0.48 0.45c-0.16 0.14-0.35 0.32-0.57 0.53 -0.23 0.2-0.52 0.39-0.84 0.62 -1.26 0.92-3.26 1.91-5.64 2.69 -1.19 0.4-2.46 0.76-3.76 1.13 -1.27 0.38-2.57 0.83-3.88 1.28C338.4 225.78 335.63 226.52 333.29 226.23z"/>
    </g>
    <g opacity="0.3">
      <path fill="#FFFFFF" d="M322.06 226.63l-1.2 0.36 -0.14-0.72c3.61-0.68 6.97-2.34 10.19-4.17 3.23-1.84 6.35-3.9 9.72-5.57 0 0-0.71 0.47-1.87 1.23 -1.16 0.79-2.78 1.88-4.62 3.12 -1.86 1.23-3.99 2.59-6.31 3.65 -2.27 1.14-4.82 1.75-7.07 1.93 0.02 0.12 0.05 0.23 0.07 0.34C321.24 226.74 321.65 226.68 322.06 226.63z"/>
    </g>
    <g opacity="0.3">
      <path fill="#FFFFFF" d="M315.45 221.15c0 0 0.25 0.02 0.69 0.05 0.45 0 1.09-0.04 1.85-0.17 1.53-0.28 3.53-0.94 5.46-1.77 1.93-0.83 3.81-1.79 5.18-2.57 1.38-0.77 2.25-1.35 2.25-1.35s-2 1.68-5.03 3.31c-1.5 0.82-3.26 1.63-5.09 2.17 -0.91 0.28-1.85 0.46-2.76 0.56C317.1 221.44 316.2 221.39 315.45 221.15z"/>
    </g>
    <g opacity="0.3">
      <path fill="#FFFFFF" d="M303.26 215.95c0 0 1.06-0.43 2.64-1.07 1.56-0.71 3.76-1.3 5.92-2.01 4.36-1.23 8.72-2.46 8.72-2.46s-2.59 1.07-6.06 2.21c-0.88 0.28-1.8 0.57-2.74 0.87 -0.94 0.31-1.91 0.62-2.88 0.9 -0.48 0.14-0.98 0.26-1.45 0.41l-1.41 0.45C305.06 215.52 304.14 215.76 303.26 215.95z"/>
    </g>
    <g opacity="0.3">
      <path fill="#FFFFFF" d="M296.23 210.75c0 0 0-0.01-0.01-0.04l-0.01-0.04c0 0.01 0-0.09 0.03-0.15 0.02-0.06 0.12-0.13 0.11-0.12 0.04-0.02 0.1-0.05 0.13-0.06 0.14-0.05 0.32-0.09 0.55-0.14 0.45-0.1 1.1-0.22 1.87-0.37 1.55-0.29 3.61-0.6 5.61-1.19 2.01-0.55 3.96-1.28 5.32-2.02 0.67-0.38 1.23-0.7 1.59-0.97 0.37-0.25 0.58-0.4 0.58-0.4s-0.12 0.11-0.34 0.29c-0.23 0.18-0.53 0.49-0.98 0.78 -0.85 0.65-2.16 1.38-3.74 2.02 -1.59 0.63-3.41 1.18-5.28 1.49 -0.93 0.15-1.85 0.26-2.75 0.34 -0.44 0.04-0.88 0.07-1.32 0.11l-0.64 0.05 -0.32 0.03c-0.05 0.01-0.11 0.02-0.18 0.03l-0.07 0.03c-0.01 0.01-0.01-0.01-0.08 0.07 -0.05 0.05-0.07 0.17-0.06 0.19C296.24 210.71 296.23 210.72 296.23 210.75z"/>
    </g>
    <g opacity="0.3">
      <path fill="#FFFFFF" d="M292.76 201.06c0 0 0.18 0.09 0.5 0.26 0.32 0.15 0.81 0.32 1.42 0.43 1.22 0.24 2.93 0.12 4.57-0.27 1.64-0.41 3.21-1.06 4.28-1.73 0.54-0.32 0.96-0.64 1.23-0.87 0.27-0.24 0.42-0.38 0.42-0.38s-0.09 0.1-0.24 0.27c-0.15 0.18-0.4 0.42-0.73 0.7 -0.66 0.55-1.69 1.23-2.98 1.77 -1.28 0.55-2.81 0.95-4.37 1.01C295.33 202.32 293.72 201.92 292.76 201.06z"/>
    </g>
    <g opacity="0.3">
      <path fill="#FFFFFF" d="M287.8 192.01c0 0 0.5 0.09 1.25 0.23 0.74 0.19 1.77 0.17 2.79 0.26 0.51-0.03 1.02-0.05 1.49-0.08 0.24-0.02 0.47-0.01 0.69-0.04 0.21-0.04 0.42-0.08 0.6-0.12 0.75-0.15 1.25-0.24 1.25-0.24s-0.32 0.1-0.8 0.24c-0.26 0.07-0.57 0.16-0.89 0.25 -0.34 0.1-0.73 0.1-1.15 0.15C291.37 192.9 289.27 192.6 287.8 192.01z"/>
    </g>
    <path d="M1127.82 182.91c0 0-1.92 2.88 2.88 3.52 2.04 0.28 2.75-1.54 2.6-2.35C1133.14 183.27 1130.08 179.02 1127.82 182.91z"/>
    <g opacity="0.3">
      <path fill="#FFFFFF" d="M137.39 127.8c0 0-0.41 0.27-1.11 0.74 -0.07 0.04-0.14 0.07-0.22 0.11 -0.02 0.04-0.07 0.06-0.11 0.03 0.03 0.01-0.09 0.21-0.18 0.33 -0.13 0.18-0.47 0.66-0.6 0.8 0.01-0.03 0.05-0.04 0.07-0.06 0.22-0.15 0.65-0.26 0.95-0.57 0.33-0.3 0.6-0.73 0.8-1.12 0.05-0.11 0.1-0.22 0.15-0.34 0.07-0.1 0.14-0.2 0.19-0.32 0.02-0.06 0.04-0.13 0.04-0.2 -0.01-0.08 0.03-0.14-0.15-0.34 -0.06-0.05-0.13-0.1-0.2-0.14l-0.11-0.07 -0.01-0.01 -0.08-0.04c-0.13-0.05-0.28-0.1-0.47-0.14 -0.37-0.07-0.9-0.04-1.35 0.18 -0.46 0.21-0.76 0.55-0.93 0.8 -0.04 0.07-0.08 0.13-0.11 0.19l-0.05 0.1c-0.03 0.07-0.06 0.14-0.09 0.21 -0.11 0.29-0.16 0.66-0.12 1 0.02 0.17 0.05 0.34 0.1 0.49 0.02 0.08 0.05 0.15 0.08 0.21 0.04 0.08 0.01 0.03 0.02 0.05l0.02 0.06c0.03 0.09 0.06 0.17 0.1 0.26l0.01 0.1c0.03 0.15 0.01 0.22 0.02 0.33l0.64 0.6c0.11 0.19 0.25 0.39 0.43 0.6 0.19 0.21 0.5 0.43 0.86 0.64 0.22 0.1 0.47 0.19 0.74 0.26 0.26 0.08 0.66 0.1 1.01 0.1 0.37 0 0.84-0.1 1.27-0.24 0.43-0.17 0.92-0.42 1.29-0.74 0.83-0.67 1.31-1.54 1.59-2.43 0.25-0.86 0.28-1.74 0.14-2.58 -0.15-0.82-0.47-1.65-0.95-2.34 -0.24-0.37-0.51-0.68-0.81-0.99l-0.06-0.06 -0.03-0.03 -0.01-0.01 -0.01-0.01 -0.22-0.18 -0.04-0.04 -0.08-0.09 -0.17-0.17c-0.55-0.43-1.3-0.85-2.02-1.05 -0.76-0.23-1.84-0.33-2.91-0.05 -1.1 0.3-2.04 0.96-2.59 1.63 -0.57 0.67-0.82 1.29-0.99 1.83 -0.28 1.06-0.15 1.78 0.01 2.36 0.18 0.57 0.45 0.98 0.74 1.28 0.58 0.6 1.23 0.78 1.76 0.77 0.53-0.01 0.96-0.19 1.26-0.4 0.29-0.2 0.79-0.9 1.53-1.32 0.19-0.1 0.38-0.19 0.58-0.22 0.1-0.01 0.2-0.03 0.3-0.01 -0.04 0-0.24-0.04-0.36-0.08 -0.27-0.06-0.57-0.21-0.75-0.34 -0.21-0.18-0.2-0.24-0.2-0.19 0.02 0.08 0.01 0.12 0 0.31 -0.01 0.09-0.03 0.12-0.06 0.24 -0.02 0.12-0.06 0.23-0.1 0.33 -0.07 0.17-0.27 0.51-0.48 0.71 -0.28 0.12-0.34 0.63-0.49 0.99l-0.1 0.29 -0.05 0.15L134.68 130l-0.01 0.04 0 0.01 0.92-1.49 0 0c0.02-0.03 0.05-0.06 0.08-0.09 0.07-0.06 0.11-0.1 0.17-0.14 0.11-0.08 0.22-0.13 0.37-0.17 0.15-0.03 0.35-0.06 0.57 0.01 0.22 0.05 0.38 0.22 0.35 0.2 -0.02-0.02-0.09-0.26 0.01-0.66 0.05-0.2 0.13-0.47 0.25-0.68 0.11-0.24 0.01-0.05-0.03 0 -0.05 0.08-0.12 0.16-0.19 0.23 0.17 0.15 0.33 0.3 0.49 0.45C137.55 127.73 137.45 127.73 137.39 127.8z"/>
    </g>
    <g opacity="0.3">
      <path fill="#FFFFFF" d="M121.03 116.94c0 0 0.01-0.16 0.11-0.37 0.05-0.16 0.13-0.33 0.24-0.49l0.1-0.14 -0.07 0.12c-0.05 0.09-0.11 0.17-0.18 0.26 -0.13 0.19-0.36 0.31-0.58 0.45 -0.22 0.14-0.45 0.31-0.67 0.49 -0.44 0.37-0.87 0.81-1.22 1.34 -0.17 0.27-0.33 0.56-0.45 0.87 -0.03 0.08-0.07 0.15-0.08 0.25 0.02 0.12 0.04 0.24 0.08 0.36 0.08 0.25 0.18 0.53 0.38 0.82 0.1 0.14 0.22 0.29 0.36 0.44 0.07 0.08 0.14 0.15 0.23 0.22 0.11 0.08 0.23 0.16 0.36 0.24s0.27 0.15 0.41 0.22c0.13 0.07 0.3 0.14 0.52 0.19 0.43 0.1 0.84 0.2 1.4 0.17 0.55-0.03 1.14-0.13 1.68-0.35 0.27-0.1 0.57-0.25 0.81-0.39 0.23-0.13 0.46-0.28 0.68-0.46 0.11-0.08 0.23-0.18 0.33-0.27l0.26-0.24c0.17-0.16 0.34-0.34 0.5-0.53 0.25-0.29 0.53-0.68 0.72-0.98 0.78-1.28 1.16-2.43 1.33-3.77 0.08-0.67 0.09-1.4-0.04-2.26 -0.15-0.86-0.41-1.9-1.27-3.21 -0.11-0.16-0.23-0.32-0.35-0.48 -0.15-0.18-0.3-0.36-0.47-0.53 -0.17-0.17-0.33-0.34-0.52-0.51 -0.21-0.18-0.43-0.35-0.66-0.52 -0.44-0.33-0.99-0.63-1.58-0.87 -0.59-0.25-1.2-0.41-1.85-0.53 -0.67-0.12-1.2-0.12-1.83-0.11 -0.32 0.01-0.57 0.04-0.82 0.08 -0.25 0.04-0.51 0.08-0.77 0.14l-0.38 0.09 -0.3 0.09c-0.2 0.06-0.4 0.13-0.6 0.2 -0.44 0.16-0.74 0.3-1.04 0.45 -0.68 0.34-1.1 0.61-1.6 0.94 -0.23 0.16-0.4 0.29-0.6 0.44l-0.29 0.23 -0.07 0.06 -0.04 0.03c0.06-0.07-0.63 0.66-0.34 0.36l-0.01 0.01 -0.06 0.05 -0.13 0.1c-0.07 0.07 0-0.04-0.29 0.29 -0.41 0.47-0.83 1.04-1.12 1.54 -0.56 0.98-1.1 2.22-1.26 3.81 -0.08 0.65-0.06 1.33 0 1.98 0.07 0.65 0.21 1.26 0.4 1.86 0.18 0.54 0.42 1.1 0.67 1.56 0.24 0.43 0.53 0.91 0.8 1.25 1.12 1.46 2.26 2.25 3.31 2.82 2.11 1.06 4.05 1.31 6.11 1.01 1-0.15 2.07-0.5 3.02-1.02 0.98-0.54 1.85-1.25 2.5-2.07 0.65-0.81 1.07-1.68 1.28-2.44 0.13-0.4 0.16-0.73 0.2-1.07 0.03-0.34 0.04-0.65 0-0.92 -0.03-0.27-0.07-0.53-0.13-0.77 -0.06-0.23-0.15-0.42-0.23-0.6 -0.16-0.38-0.37-0.67-0.59-0.89 -0.43-0.48-0.91-0.73-1.37-0.88 -0.91-0.3-1.74-0.2-2.37 0.01 -0.32 0.1-0.76 0.39-1.35 0.66 -0.29 0.14-0.62 0.25-0.96 0.3 -0.16 0.03-0.35 0.01-0.52-0.01l-0.12-0.02c-0.07-0.02-0.04-0.02 0 0 0.06 0.02 0.12 0.05 0.19 0.08 0.19 0.08 0.31 0.22 0.25 0.15 -0.04-0.05-0.17-0.28-0.22-0.61 -0.06-0.32-0.03-0.73 0.01-0.88 0.04-0.17 0.04-0.05-0.17 0.3 -0.19 0.33-0.69 0.81-1 0.94 -0.19 0.08-0.22 0.07-0.22 0.07 0.07 0 0.04 0.01 0.17 0.03 0.05 0.01 0.09 0.03 0.13 0.05 0.06 0.02 0.14 0.05 0.2 0.08 0.11 0.05 0.28 0.18 0.4 0.35 0.08 0.07 0.05 0.2 0.22 0.22l0.4 0.12 0.2 0.06 0.1 0.03 0.03 0.01 0.01 0c-0.48-0.56 4.23 4.88 2.23 2.57l-0.06-0.06c-0.16-0.15-0.32-0.31-0.47-0.47 -0.3-0.31-0.61-0.72-0.86-1.01 -0.25-0.28-0.48-0.59-0.69-0.93 -0.2-0.28-0.36-0.52-0.5-0.82 -0.14-0.27-0.24-0.44-0.3-0.71 -0.07-0.17-0.1-0.37-0.12-0.5 -0.03-0.27 0.03-0.29-0.02-0.21 -0.06 0.11-0.27 0.38-0.59 0.56 -0.63 0.46-1.65 0.66-1.73 0.66 -0.01 0-0.04 0 0.07 0l0.13 0c0.07 0 0.15 0 0.22 0.01 0.32 0.02 0.82 0.1 1.3 0.26 0.49 0.17 0.92 0.42 1.08 0.61C121.1 117.22 120.98 117.23 121.03 116.94z"/>
    </g>
    <g opacity="0.3">
      <path fill="#FFFFFF" d="M310.46 148.18c-0.02 0-0.32 0.39-0.18 0.8 0.05 0.2 0.17 0.43 0.22 0.64 0.12 0.19 0.04 0.48 0.98 0.57 -0.44-0.19-0.88-0.38-1.39-0.6 0.03 0.05 0.07 0.1 0.16 0.19 0.09 0.08 0.21 0.22 0.56 0.35 0.32 0.15 1.03 0.07 1.35-0.25 0.33-0.3 0.4-0.53 0.45-0.67 0.04-0.14 0.05-0.23 0.06-0.29 0.01-0.07 0-0.02 0.01-0.04l0-0.02 0.02-0.06 0.03-0.1c0.02-0.06 0.04-0.13 0.06-0.19 0.02-0.07 0.03-0.14 0.05-0.21l0.02-0.13 0.01-0.08c0-0.07-0.01-0.22-0.03-0.32L312.69 147l-0.76-0.36c-0.3-0.14-0.65-0.29-1.05-0.29 -0.13-0.01-0.25-0.01-0.35 0l-1.1 0.05 -0.29 1.1c-0.09 0.33-0.18 0.54-0.1 1.15 0.01 0.19 0.19 0.64 0.39 0.89 0.19 0.24 0.4 0.37 0.61 0.49 0.12 0.04 0.23 0.07 0.34 0.09 0.1 0.01 0.12-0.02 0.18-0.03 0.12-0.02 0.14-0.09 0.22-0.15 0.22-0.26 0.56-0.52 0.7-0.73 0.09-0.11 0.13-0.53-0.05-0.98 -0.03-0.11-0.08-0.22-0.03-0.29l0.01-0.03 0.01-0.01 -0.11 0.18 -0.06 0.09 -0.01 0.02 -0.01 0.03 -0.04 0.06c-0.03 0.07-0.21 0.19-0.13 0.14 0.01 0 0.02-0.01 0.03 0 0 0 0 0.01 0.09-0.02 0.13-0.03 0.26-0.03 0.38 0 0.09 0.02 0.59 0.06 0.64 0.09 0.03 0.01 0.05 0.02 0.07 0.02 -0.44 0.18-0.9 0.36-1.35 0.55 -0.01-0.03-0.02-0.07 0-0.13 0 0.04-0.02 0.08-0.03 0.09 0.13-0.29 0.26-0.6 0.38-0.9 -0.44 0.11-0.9 0.15-1.35 0.12 -0.06-0.02-0.38 0-0.29 0v0.01l0 0.01 0.01 0.06c0.01 0.05 0.02 0.1 0.03 0.15 0.02 0.05 0.04 0.11 0.06 0.16 0.01 0.02 0.03 0.05 0.04 0.07l0.02 0.01c0.01 0-0.01 0 0.02 0l0.31 0.02c0.19 0 0.46 0.06 0.58 0.02 0.05-0.03 0.11-0.06 0.19-0.12 0.07-0.05 0.23-0.15 0.39-0.11 0.27 0.14 0.09 0.27 0.03 0.31l-0.16-0.9c-0.02-0.11-0.04-0.22-0.06-0.33l-0.02-0.17c-0.01-0.05 0-0.01 0-0.01l0 0.08c0.02 0.06-0.08 0.12-0.12 0.19C310.82 147.79 310.59 147.97 310.46 148.18z"/>
    </g>
    <g opacity="0.3">
      <path fill="#FFFFFF" d="M335.69 150.42c0.05 0.06-0.67 0.17-1.28 0.65 -0.3 0.24-0.58 0.57-0.73 1.02 -0.11 0.19-0.05 0.55 0.17 0.98 0.16 0.23 0.43 0.48 0.76 0.72 0.28 0.18 0.63 0.34 1.05 0.47l1.64 0.5 1.01-2.79c0.09-0.25 0.19-0.52 0.23-0.95 0.03-0.18 0.01-0.5-0.02-0.78 -0.03-0.18-0.08-0.37-0.14-0.56 -0.05-0.19-0.19-0.46-0.32-0.69 -0.29-0.49-0.85-1.03-1.48-1.32 -0.29-0.14-0.64-0.25-0.88-0.29 -0.13-0.03-0.28-0.05-0.41-0.06l-0.34-0.02c-0.88-0.01-1.37 0.14-1.8 0.24 -0.11 0.03-0.22 0.06-0.32 0.1l-0.07 0.02 -0.01 0c-2.51 1.8-0.7 0.5-1.26 0.9l0 0 0 0 -0.01 0.01 -0.02 0.02c-0.32 0.37-0.66 1.02-0.75 1.65 -0.05 0.31-0.06 0.62-0.03 0.89l0.02 0.16c0.03 0.18 0.08 0.43 0.12 0.54l0.12 0.35c0.08 0.21 0.17 0.38 0.26 0.55 0.39 0.63 0.86 1.24 1.9 1.74 0.29 0.12 0.54 0.21 0.87 0.27 0.33 0.05 0.67 0.07 0.97 0.03 0.3-0.04 0.59-0.12 0.85-0.22 0.26-0.1 0.4-0.22 0.58-0.34 0.37-0.26 0.5-0.48 0.63-0.69 0.06-0.11 0.12-0.21 0.16-0.31 0.02-0.08 0.04-0.17 0.05-0.25 0.12-0.66-0.15-1.03-0.38-1.33 -0.25-0.28-0.54-0.45-0.79-0.52 -0.22-0.09-0.74-0.02-1.25-0.19 -0.06-0.02-0.12-0.03-0.17-0.08 -0.04-0.02-0.14-0.16-0.01 0.01 0.08 0.13 0.13 0.18 0.17 0.24 0.04 0.06 0.07 0.19 0.07 0.18 0.02 0.08-0.01 0.07 0.05-0.08 0.02-0.03 0.03-0.06 0.06-0.09 0.03-0.05 0.06-0.1 0.09-0.14 0.07-0.07 0.16-0.18 0.26-0.27 0.11-0.08 0.18-0.16 0.28-0.21 0.07-0.05 0.1-0.06 0.11-0.06 -0.11 0.06-0.1 0.05-0.42 0.17l-0.44 0.13c-0.18 0.07-0.39 0.01-0.56 0.15 -0.09 0.04-0.22-0.01-0.25-0.06l-0.02-0.06 0-0.01 0-0.01 0 0c-0.98-2.47 1.34 3.36 1.1 2.76l0.01 0 0.1 0.02c0.07 0.01 0.11 0.03 0.15 0.03 0.03 0.02 0.07 0.03 0.07 0.05l-0.15-0.6c-0.05-0.18-0.09-0.36-0.12-0.55 -0.13-0.64-0.11-1.1-0.05-1.31 0.06-0.22 0.12-0.14-0.13 0l-0.22 0.09c-0.1 0.04-0.16 0.04-0.28 0.07s-0.25 0.06-0.38 0.08c-0.12 0.01-0.25 0.02-0.43 0.04 -0.17 0.02-0.33 0.03-0.49 0.02 -0.06 0-0.22 0-0.19-0.01 0.02 0 0.03 0.01 0.04 0.01 0.07 0.02 0.13 0.05 0.2 0.08 0.9-0.7 1.79-1.39 2.69-2.08 0.03 0.21 0.02 0.44-0.03 0.66 -0.04 0.21-0.18 0.52-0.12 0.39 0.02-0.02 0.03-0.03 0.05-0.03l0.15-0.22c0 0-0.02 0.02-0.03 0.03l-0.07 0.07C335.81 150.33 335.76 150.38 335.69 150.42z"/>
    </g>
    <g opacity="0.3">
      <path fill="#FFFFFF" d="M322.44 141.87c-0.02 0-0.15 0.31 0.02 0.56 0.08 0.13 0.14 0.26 0.21 0.39 0.01 0.03 0.04 0.06 0.09 0.1 0.02 0.02 0.04 0.03 0.1 0.05 0.08 0.01 0.06 0.04 0.23 0.04 0.18-0.03 0.3 0.01 0.57-0.22 0.11-0.09 0.23-0.26 0.27-0.35 0.03-0.07 0.05-0.15 0.07-0.23 0.02-0.08 0.03-0.17 0.04-0.24l0-0.12 0-0.13 0-0.07 0-0.03 0-0.02 0-0.01v0 0c0.13 0.15-1.15-1.31-0.61-0.69 -0.08-0.03-0.16-0.05-0.23-0.07l-0.11-0.02 -0.05-0.01 -0.13 0c-0.2 0.02-0.3 0.02-0.53 0.14 -0.3 0.15-0.5 0.55-0.48 0.64 -0.05 0.4 0.03 0.38 0.07 0.48l0.06 0.01 0.04 0.01c0.02 0-0.02 0 0.04 0 0.24 0.01 0.17 0 0.19 0l0.04-0.01c0.09-0.02 0.24 0.05 0.23 0.05 0-0.01 0-0.01 0-0.01l0.01 0c0 0 0.04 0.07 0.05 0.09 0.02 0.03 0.08 0.09 0.21 0.05 0.1-0.04 0.22-0.18 0.3-0.29 0.02-0.03 0.05-0.04 0.07-0.05l0.03-0.02 0.01 0 0 0 0 0 0 0h-0.06 0l-0.01 0c-0.02 0.01-0.04 0.01-0.07 0.01 -0.08 0.02-0.21-0.02-0.26-0.05 0.01 0.01 0 0.01 0 0.02 0.05 0.09 0.07 0.19 0.05 0.28 -0.01 0.05-0.02 0.09-0.04 0.14l-0.01 0.16 -0.01 0.08 0 0.01c0.01 0.03 0.02 0.06 0.02 0.09 -0.19-0.22-0.39-0.44-0.59-0.66 -0.01 0.02-0.02 0.03-0.03 0.04l0 0.02c-0.03 0 0.14 0 0.2 0 0.1 0.01 0.09-0.02 0.14-0.02 0.08-0.01 0.16-0.01 0.24 0.01 0.06 0.01 0.2 0.09 0.17 0.06 0.01 0 0.02 0 0.03 0.01 -0.01-0.02-0.06-0.13-0.06-0.19 0-0.04 0-0.08 0.01-0.11 0-0.03 0.01 0.04 0-0.08l-0.01-0.28c0-0.06 0-0.02 0-0.03l0 0.01 -0.02 0.04c0.01 0.03-0.1 0.06-0.14 0.1C322.69 141.6 322.52 141.71 322.44 141.87z"/>
    </g>
    <g opacity="0.3">
      <path fill="#FFFFFF" d="M329.58 142.26c-0.01 0.02-0.22-0.06-0.44 0.01 -0.13 0.03-0.35 0.02-0.45 0.23 -0.05 0.09-0.08 0.23-0.06 0.39 0.01 0.08 0.02 0.17 0.07 0.29 0.03 0.06 0.05 0.12 0.12 0.2 0.06 0.07 0.15 0.2 0.46 0.31l1-0.43c0.05 0.02 0.09 0.04 0.11 0.06 -0.02 0.04 0.1-0.07 0.17-0.12 0.08-0.06 0.16-0.14 0.24-0.21 0.03-0.03 0.05-0.05 0.07-0.07l0.51-0.51 -0.58-0.76c-0.07-0.1-0.16-0.18-0.27-0.28l-0.12-0.08c-0.05-0.03-0.05-0.04-0.17-0.1 -0.05-0.02-0.09-0.04-0.14-0.06l-0.08-0.03c-0.07-0.02-0.14-0.04-0.21-0.04 -0.16-0.01-0.26-0.01-0.44 0.04 -0.2 0.06-0.4 0.21-0.51 0.36 -0.25 0.42-0.16 0.54-0.17 0.62 0.01 0.08 0.04 0.12 0.06 0.15 0.06 0.07 0.07 0.07 0.17 0.09 0.61 0.06 0.55 0.12 0.58 0.13 0 0 0 0 0 0 0 0.05 0.09 0.12 0.21 0.05 0.12-0.06 0.23-0.17 0.33-0.26 0.03-0.01 0.05-0.05 0.08-0.05l0.02 0 0.01 0 0.01 0 -0.07-0.01c-0.11 0-0.17-0.01-0.26-0.03 -0.15-0.02-0.17-0.08-0.16-0.05 0.01 0.03-0.05 0.19-0.14 0.29 -0.05 0.07-0.13 0.19-0.2 0.27 -0.05 0.06-0.06 0.06-0.06 0.06l-0.01 0.01c-0.01 0.02-0.01 0.05-0.01 0.08 -0.01 0.05 0.01 0.12 0.02 0.17 0.17-0.26 0.34-0.53 0.51-0.8l-0.58-0.39h0 0l-0.01 0 -0.01 0 -0.02 0 -0.04 0c-0.02 0-0.04 0.01-0.05 0.02 -0.12 0.11-0.31 0.35-0.38 0.55l0.87 0.38c0.02-0.08 0.14-0.24 0.28-0.35 0.07-0.06 0.14-0.11 0.21-0.16 0 0.01-0.03 0.02-0.05 0.03C329.86 142.25 329.73 142.27 329.58 142.26z"/>
    </g>
    <g opacity="0.3">
      <path fill="#FFFFFF" d="M334.49 150.44c0 0-0.01 0.2 0.08 0.37 0.05 0.08 0.14 0.14 0.31 0.14 0.18 0.01 0.45-0.1 0.71-0.42 0.22-0.29 0.18-0.55 0.09-0.69 -0.09-0.15-0.23-0.2-0.33-0.19 -0.11 0.01-0.43 0.14-0.64 0.2 -0.11 0.03-0.17 0.07-0.21 0.14C334.49 150.07 334.48 150.18 334.49 150.44z"/>
    </g>
    <g opacity="0.3">
      <path fill="#FFFFFF" d="M332.77 151.05c0 0 0.27 0.18 0.58 0.17 0.16-0.01 0.33-0.06 0.48-0.2 0.08-0.07 0.15-0.16 0.22-0.28 0.08-0.08 0.15-0.17 0.2-0.27 -0.46 0.22-0.93 0.43-1.49 0.69 0.07 0.09 0.16 0.18 0.27 0.28 0.3 0.23 0.47 0.25 0.77 0.18 0.27-0.07 0.54-0.21 0.65-0.34 0.08-0.1 0.2-0.46 0.12-0.91 -0.07-0.49-0.35-0.89-0.8-1.08l-1.62-0.7 0 1.45c0 0.2 0.04 0.4 0.14 0.59C332.39 150.8 332.56 150.91 332.77 151.05z"/>
    </g>
    <g opacity="0.3">
      <path fill="#FFFFFF" d="M322.94 141.36c0 0-0.01-0.14-0.08-0.24 -0.04-0.05-0.11-0.09-0.24-0.07 -0.06 0.02-0.16 0.06-0.25 0.18 -0.09 0.11-0.14 0.34-0.1 0.52 0.19 0.56 0.54 0.35 0.6 0.27 0.05-0.05 0.1-0.3 0.16-0.44 0.02-0.03 0.03-0.06 0.04-0.05 -0.08 0.01-0.1 0.02-0.13 0 0.02-0.01 0.07 0.05 0.06 0.02C322.97 141.51 322.95 141.45 322.94 141.36z"/>
    </g>
    <g opacity="0.3">
      <path fill="#FFFFFF" d="M233.11 78.35c0 0 0.69-0.3 2.03-0.67 1.34-0.42 3.32-0.71 5.82-0.76 2.47 0 5.44 0.32 8.48 1.05 1.55 0.37 3.08 0.78 4.65 1.32 1.55 0.47 3.12 1.11 4.67 1.68 0.57 0.23 1.12 0.46 1.66 0.68 0.61 0.26 1.2 0.51 1.77 0.75 0.56 0.25 1.11 0.48 1.63 0.74 0.51 0.28 1 0.55 1.48 0.82 1.91 1.02 3.43 2.23 4.81 3.29 0.68 0.56 1.28 1.16 1.87 1.72 0.58 0.58 1.16 1.08 1.66 1.7 0.5 0.59 1 1.17 1.5 1.76 0.24 0.29 0.5 0.57 0.73 0.88 0.23 0.31 0.46 0.63 0.69 0.94 0.46 0.63 0.94 1.25 1.43 1.89 0.45 0.67 0.92 1.37 1.41 2.1 0.25 0.35 0.51 0.72 0.77 1.09 0.23 0.4 0.47 0.8 0.71 1.22 0.47 0.84 1.08 1.64 1.56 2.62 1.05 1.88 2.14 4.09 3.65 6.51 0.76 1.21 1.61 2.49 2.67 3.73 1.02 1.27 2.33 2.44 3.82 3.46 0 0-0.39-0.25-1.09-0.7 -0.36-0.23-0.81-0.51-1.26-0.92 -0.45-0.41-1.05-0.83-1.56-1.42 -1.11-1.12-2.36-2.57-3.62-4.27 -1.29-1.68-2.61-3.63-4.08-5.46 -2.92-3.61-6.9-6.78-11.4-9.1 -2.25-1.15-4.53-2.2-6.81-3.05 -1.15-0.41-2.25-0.87-3.37-1.18 -0.55-0.18-1.1-0.36-1.64-0.53 -0.61-0.21-1.22-0.42-1.81-0.62 -0.72-0.25-1.42-0.5-2.07-0.77 -0.63-0.28-1.24-0.56-1.83-0.84 -1.19-0.55-2.21-1.13-3.19-1.7 -0.99-0.57-1.87-1.13-2.72-1.68 -0.84-0.55-1.65-1.08-2.45-1.61 -1.59-1.06-3.13-1.99-4.83-2.83 -0.85-0.38-1.74-0.75-2.69-1.09C235.2 78.79 234.19 78.56 233.11 78.35z"/>
    </g>
    <g opacity="0.3">
      <path fill="#FFFFFF" d="M353 175.61c0 0-0.06 1.39-0.52 1.47 -0.47 0.09-1.34-1.12-2.97-6.24 -0.95-2.51-1.93-6.05-3.73-10.66 -0.21-0.58-0.43-1.18-0.65-1.8 -0.25-0.61-0.55-1.22-0.83-1.86 -0.57-1.28-1.17-2.64-1.81-4.08 -0.73-1.4-1.56-2.85-2.39-4.41 -0.8-1.57-1.83-3.16-2.88-4.86 -0.52-0.85-1.06-1.72-1.62-2.61 -0.58-0.89-1.17-1.81-1.78-2.74 -1.22-1.87-2.48-3.85-3.78-5.98 -0.65-1.06-1.32-2.14-2-3.25 -0.62-1.18-1.34-2.34-1.91-3.62 -1.26-2.49-2.24-5.24-3.13-8.14 -0.82-2.92-1.41-6.05-1.67-9.33 -0.23-3.29-0.04-6.75 0.72-10.24 0.76-3.48 2.14-6.98 4.25-10.16 2.15-3.15 4.98-5.99 8.39-8.15 0 0 0.15-0.09 0.48-0.3 0.35-0.18 0.89-0.46 1.67-0.87 1.53-0.82 4.09-2 8.15-3.05 2.02-0.55 4.44-0.94 7.27-1.25 2.83-0.25 6.08-0.33 9.77-0.12 3.69 0.22 7.81 0.74 12.34 1.7 2.27 0.46 4.63 1.1 7.08 1.88 2.44 0.81 4.95 1.83 7.5 3.08 2.41 1.24 4.8 2.65 7.09 4.28 2.28 1.63 4.49 3.41 6.6 5.35 2.11 1.94 4.09 4.08 5.78 6.5 1.65 2.41 3.1 5.18 3.38 8.34 0.03 0.39 0.08 0.79 0.08 1.18l-0.08 1.19c-0.04 0.8-0.25 1.58-0.49 2.36 -0.52 1.55-1.49 3-2.72 4.09 -2.51 2.18-5.56 3.04-8.37 3.56 -2.85 0.51-5.63 0.64-8.32 0.68 -2.69 0.03-5.29-0.07-7.79-0.19 -5-0.25-9.64-0.61-13.73-0.66 -2.04-0.03-3.95 0.02-5.63 0.22 -1.68 0.19-3.11 0.57-4.01 1.07 -0.89 0.51-1.2 0.99-1.47 1.78 -0.23 0.8-0.19 1.8-0.15 2.71 0.14 1.83 0.32 3.32 0.01 4.04 -0.28 0.72-0.93 0.1-1.83-1.63 -0.44-0.87-0.94-2.04-1.23-3.61 -0.14-0.78-0.19-1.69 0.02-2.68 0.19-0.98 0.7-2.04 1.51-2.89 1.67-1.7 4.04-2.43 6.4-2.84 2.39-0.4 4.92-0.48 7.55-0.45 5.25 0.08 10.9 0.66 16.69 0.95 2.89 0.14 5.83 0.22 8.7 0.03 2.85-0.19 5.71-0.66 7.95-1.81 2.26-1.12 3.53-3.05 3.73-5.47 0.3-2.35-0.54-4.82-1.74-7.02 -1.21-2.22-2.79-4.23-4.43-6.02 -1.64-1.79-3.36-3.37-5.02-4.78 -3.33-2.85-6.35-4.8-8.76-6.04 -2.39-1.25-5.02-2.45-7.88-3.43 -2.86-0.98-5.92-1.79-9.12-2.43 -6.37-1.32-13.16-1.87-19.54-1.29 -6.36 0.63-12.28 2.55-16.5 5.61 -4.25 3-6.9 6.78-8.21 9.62 -0.7 1.42-1.41 3.41-2.01 5.86 -0.48 2.48-0.8 5.44-0.61 8.74 0.36 6.59 2.77 14.47 7.32 21.71 4.6 7.46 10.47 15.16 14.39 23.85C350.36 159.1 352.09 167.99 353 175.61z"/>
    </g>
    <g opacity="0.3">
      <path fill="#FFFFFF" d="M61.71 51.98c0 0-0.16 0.13-0.5 0.33 -0.33 0.18-0.89 0.52-1.64 0.65 -1.5 0.37-3.92 0.15-6.51-1.08 -2.58-1.21-5.21-3.34-7.23-6.07 -2.03-2.72-3.49-6.03-3.91-9.62 -0.15-1.28-0.23-2.48-0.25-3.57 -0.02-1.09 0-2.22 0.09-3.18 0.16-1.96 0.5-3.61 0.87-5.11 0.74-2.98 1.72-5.47 2.06-8.29 0.18-1.41 0.17-2.89-0.18-4.48 -0.37-1.57-1-3.32-2.39-4.91 -1.37-1.56-3.25-3.04-5.69-4.16 -1.23-0.54-2.56-1.06-4.06-1.38 -1.47-0.36-3.13-0.48-4.73-0.31 0 0 0.42-0.08 1.18-0.22 0.2-0.03 0.43-0.07 0.67-0.11 0.25-0.02 0.51-0.02 0.81-0.03 0.58 0.01 1.29-0.07 2.03 0.03 1.52 0.12 3.36 0.38 5.39 0.97 0.51 0.15 1.04 0.31 1.58 0.47 0.53 0.21 1.07 0.42 1.63 0.64 0.28 0.12 0.56 0.23 0.85 0.35 0.28 0.15 0.56 0.29 0.85 0.44 0.57 0.33 1.17 0.56 1.76 1.02 0.58 0.42 1.23 0.87 1.79 1.35 0.52 0.48 1.11 0.96 1.6 1.51 1.04 1.07 1.99 2.27 2.84 3.53 1.73 2.54 2.98 5.34 3.98 8.03 0.99 2.7 1.69 5.29 2.29 7.63 0.28 1.13 0.55 2.24 0.81 3.32 0.26 1.12 0.48 2.17 0.67 3.18 0.92 4.73 0.53 8.19 0.51 11.44 -0.03 1.64 0.09 3.14 0.51 4.56C59.77 50.33 60.64 51.57 61.71 51.98z"/>
    </g>
    <g opacity="0.3">
      <path fill="#FFFFFF" d="M35.55 37.26c0 0-0.3 0.49-1.13 1.18 -0.41 0.31-0.96 0.62-1.68 0.89 -0.69 0.21-1.59 0.4-2.54 0.35 -1.94-0.04-4.22-0.87-6.11-2.23 -1.9-1.34-3.45-3.16-4.4-5.04 -0.69-1.36-1.13-2.46-1.44-3.31 -0.4-0.94-0.83-1.92-1.12-2.85 -0.69-1.78-1.16-3.55-2.11-5.18 -0.23-0.41-0.47-0.86-0.77-1.26 -0.31-0.39-0.64-0.77-1.02-1.17 -0.38-0.38-0.78-0.81-1.27-1.15 -0.49-0.34-1.03-0.67-1.62-1.01 -2.38-1.25-5.81-2.16-10.4-1.76 0 0 1.14-0.21 3.13-0.47 0.99-0.11 2.18-0.13 3.56-0.17 0.68 0.01 1.4 0.08 2.17 0.14 0.77 0.06 1.57 0.12 2.38 0.31 3.32 0.51 6.99 2 10.21 4.14 1.66 1.04 3.06 2.31 4.42 3.58 1.49 1.5 2.53 3.03 3.32 4.32 1.85 3.08 2.16 5.22 2.78 7.14 0.31 0.9 0.66 1.78 1.24 2.44C33.72 36.77 34.53 37.24 35.55 37.26z"/>
    </g>
    <g opacity="0.3">
      <path fill="#FFFFFF" d="M71.93 75.52c0 0-0.42 0.71-1.41 1.75 -0.99 1.02-2.62 2.26-5.01 3.06 -2.35 0.76-5.45 0.9-8.45 0.15 -3-0.73-5.81-2.23-7.93-4.15 -1.53-1.4-2.64-2.56-3.59-3.68 -0.47-0.51-0.9-1.1-1.3-1.57 -0.4-0.5-0.76-1.01-1.21-1.5 -0.85-0.99-1.6-2.02-2.37-3 -0.79-0.93-1.59-1.87-2.5-2.79 -0.91-0.88-1.96-1.66-3.18-2.45 -1.23-0.76-2.7-1.29-4.42-1.82 -1.74-0.43-3.76-0.66-6.1-0.54 -1.17 0.07-2.42 0.23-3.71 0.6 -0.64 0.17-1.29 0.43-1.89 0.77 -0.58 0.35-1.14 0.81-1.31 1.32 0 0 0.02-0.07 0.07-0.2 0.03-0.07 0.06-0.16 0.09-0.27 0.07-0.1 0.15-0.21 0.24-0.34 0.39-0.52 1.26-1.19 2.5-1.75 2.49-1.13 6.18-2.04 10.56-2.37 4.37-0.25 9.43 0.19 14.23 1.5 1.18 0.36 2.36 0.73 3.53 1.13 1.19 0.45 2.46 1.01 3.55 1.59 2.23 1.16 4.17 2.47 5.73 3.68 3.69 2.89 5.1 5.34 6.85 7.43 0.86 1.01 1.78 1.96 2.94 2.59C68.96 75.35 70.36 75.62 71.93 75.52z"/>
    </g>
    <g opacity="0.3">
      <path fill="#FFFFFF" d="M90.78 79.07c0 0-0.92-0.2-2.33-0.55 -1.43-0.33-3.34-0.72-5.46-1.43 -2.11-0.73-4.49-1.75-6.69-3.97 -1.09-1.14-2.11-2.59-2.82-4.21 -0.35-0.81-0.67-1.66-0.86-2.51 -0.23-0.87-0.34-1.73-0.41-2.62 -0.26-4.98 0.85-8.07 1.76-10.33 0.94-2.38 1.99-4.46 2.64-6.83 0.63-2.35 0.95-5.06-0.12-8.4 -0.59-1.63-1.52-3.44-3.13-5.1 -1.6-1.63-3.96-3.03-6.79-3.42 0 0 0.37 0.03 1.03 0.09 0.33 0.05 0.78 0.05 1.26 0.17 0.49 0.13 1.05 0.28 1.67 0.45 0.6 0.23 1.26 0.53 2 0.87 0.66 0.42 1.45 0.83 2.17 1.41 1.5 1.11 2.93 2.64 4.28 4.43 1.29 1.81 2.44 3.87 3.4 6.07 0.94 2.2 1.68 4.51 2.23 6.85 0.28 1.17 0.5 2.33 0.69 3.49 0.08 0.58 0.16 1.16 0.23 1.73 0.06 0.52 0.12 1.04 0.19 1.55 0.21 1.79 0.41 3.51 0.59 5.12 0.21 1.7 0.25 2.98 0.31 4.21 -0.02 0.63 0.08 1.24 0.1 1.89 0.11 0.67 0.14 1.34 0.31 2.05 0.24 1.39 0.66 2.86 1.24 4.31C88.85 75.88 89.65 77.33 90.78 79.07z"/>
    </g>
    <g opacity="0.3">
      <path fill="#FFFFFF" d="M110.61 89.19c0 0-0.86 0.07-2.31-0.05 -0.72-0.07-1.63-0.16-2.58-0.4 -0.95-0.25-2.01-0.6-3.14-1.1 -1.1-0.52-2.2-1.23-3.36-2.08 -1.06-0.9-2.15-1.98-3.07-3.27 -1.83-2.57-3.04-5.93-3.07-9.48 0.01-1.26 0.13-2.41 0.24-3.5 0.13-1.06 0.39-1.9 0.61-2.77 0.47-1.69 1.02-3.17 1.62-4.5 0.61-1.34 1.21-2.54 1.89-3.7 0.7-1.15 1.4-2.27 2.05-3.43 1.31-2.34 2.42-4.83 3.1-8.37 0.3-1.77 0.38-3.88-0.17-6.22 -0.54-2.33-1.98-4.8-4.34-6.65 0 0 0.31 0.22 0.88 0.63 0.28 0.21 0.66 0.47 1.06 0.8 0.37 0.38 0.8 0.81 1.26 1.28 0.48 0.5 0.86 1.14 1.36 1.83 0.44 0.71 0.83 1.53 1.23 2.42 0.7 1.79 1.24 3.93 1.54 6.11 0.27 2.07 0.55 4.27 0.83 6.52 0.27 2.17 0.47 4.37 0.68 6.55 0.29 2.18 0.52 4.34 0.65 6.41 0.07 1.02 0.09 2.09 0.14 3.02 0.09 0.86 0.12 1.71 0.15 2.51 0.27 3.7-0.22 6.37-0.19 9.21C107.71 83.74 108.19 86.66 110.61 89.19z"/>
    </g>
    <path opacity="0.3" fill="#FFFFFF" enable-background="new    " d="M255.74 66.37c0 0 7.95-14.79-10.54-20.34 -13.31-3.88-19.23 7.95-19.79 10.17 0 0 5.55-7.21 9.06-3.14C237.98 57.12 237.8 70.81 255.74 66.37z"/>
    <path opacity="0.3" fill="#FFFFFF" enable-background="new    " d="M296.31 119.39c0 0-4.42-20.3-1.91-40.96 0 0 6.15 27.67 14.93 34.5 8.78 6.83 7.53 25.75 2.23 25.36C311.56 138.29 297.32 125.12 296.31 119.39z"/>
    <path opacity="0.3" fill="#FFFFFF" enable-background="new    " d="M266.62 56.84c0 0-14.1-3.3-10.54-18.52s24.07-18.04 33.13-8.35c0 0-13.66-8.47-19.26-0.46 -2.52 3.85 1.06 10.1 1.83 11.26 0.77 1.15 3.39 7.69 0.34 14.05C270.83 56.91 269.38 57.33 266.62 56.84z"/>
    <path opacity="0.3" fill="#FFFFFF" enable-background="new    " d="M277.6 70.71c0 0-8.03-7.94 0.83-16.85s23.78-2.55 25.73 7.69c0 0-5.54-11.28-12.7-8.09 -3.32 1.6-3.59 7.3-3.56 8.39s-1 6.6-5.75 9.7C280.39 72.46 279.24 72.16 277.6 70.71z"/>
    <path opacity="0.3" fill="#FFFFFF" enable-background="new    " d="M295.54 142.81c0 0 3.57-5.96-4.08-15.94s-19.89-8.64-34.04-8.86c0 0 9.58 0.35 16.27 4.43 3.09 2.02 4.46 6.82 5.62 11.74 0.25 1.07 1.77 5.87 6.08 9.55C289.46 146.13 293.72 144.04 295.54 142.81z"/>
    <path opacity="0.3" fill="#FFFFFF" enable-background="new    " d="M32.47 128.16c0 0-3.72-36.4 30.72-42.31s41.98 10.06 41.98 10.06 3.39 8.97-1.42 15.09c-2.3 2.84-13.99 3.17-19.46-7.43s-18.26-12.48-20.11-12.2C62.32 91.65 32.47 88.15 32.47 128.16z"/>
  </g>
  <g id="strokes" display="none">
    <path display="inline" d="M1110.54 325.27h64.72C1175.26 325.27 1135.47 329.8 1110.54 325.27z"/>
    <path display="inline" d="M1110.54 293.63c0 0 9.49-6.22 22.15-5.75 18.15 0.68 16.71 6.2 42.57 3.55 0 0-25.81 4.34-42.45 4.33C1123.01 295.76 1118.63 293.32 1110.54 293.63z"/>
    <path display="inline" d="M1110.54 256.59c0 0 9.29-12.51 21.95-12.04 18.15 0.68 16.91 12.49 42.76 9.85 0 0-17.42 5.9-38.77 4.87C1125.91 258.76 1121.53 254.91 1110.54 256.59z"/>
  </g>
</svg>
